<svg xmlns="http://www.w3.org/2000/svg" width="21.674" height="21.669" viewBox="0 0 21.674 21.669">
  <path id="brand_instagram" data-name="brand instagram" d="M10.764,37.1a5.556,5.556,0,1,0,5.556,5.556A5.547,5.547,0,0,0,10.764,37.1Zm0,9.167a3.612,3.612,0,1,1,3.612-3.612A3.618,3.618,0,0,1,10.764,46.271Zm7.079-9.395a1.3,1.3,0,1,1-1.3-1.3A1.293,1.293,0,0,1,17.843,36.877Zm3.68,1.315a6.413,6.413,0,0,0-1.75-4.54,6.455,6.455,0,0,0-4.54-1.75c-1.789-.1-7.151-.1-8.94,0a6.446,6.446,0,0,0-4.54,1.745A6.434,6.434,0,0,0,0,38.187c-.1,1.789-.1,7.151,0,8.94a6.413,6.413,0,0,0,1.75,4.54,6.463,6.463,0,0,0,4.54,1.75c1.789.1,7.151.1,8.94,0a6.413,6.413,0,0,0,4.54-1.75,6.455,6.455,0,0,0,1.75-4.54C21.624,45.338,21.624,39.981,21.522,38.192ZM19.211,49.047a3.657,3.657,0,0,1-2.06,2.06c-1.426.566-4.811.435-6.387.435s-4.966.126-6.387-.435a3.657,3.657,0,0,1-2.06-2.06c-.566-1.426-.435-4.811-.435-6.387s-.126-4.966.435-6.387a3.657,3.657,0,0,1,2.06-2.06c1.426-.566,4.811-.435,6.387-.435s4.966-.126,6.387.435a3.657,3.657,0,0,1,2.06,2.06c.566,1.426.435,4.811.435,6.387S19.777,47.625,19.211,49.047Z" transform="translate(0.075 -31.825)" fill="#405284"/>
</svg>
