<svg xmlns="http://www.w3.org/2000/svg" width="30.307" height="19" viewBox="0 0 30.307 19">
  <path id="brand_behance" data-name="brand behance" d="M12.207,83.913a3.993,3.993,0,0,0,2.547-3.894c0-3.715-2.768-4.62-5.961-4.62H0V94.047H9.039c3.388,0,6.572-1.626,6.572-5.414a4.493,4.493,0,0,0-3.4-4.72ZM4.1,78.583H7.945c1.479,0,2.81.416,2.81,2.131,0,1.584-1.037,2.22-2.5,2.22H4.1Zm4.383,12.3H4.1V85.744H8.566c1.8,0,2.946.752,2.946,2.662C11.512,90.29,10.15,90.88,8.482,90.88ZM27.344,78.215H19.784V76.379h7.561Zm2.962,9.276c0-3.994-2.336-7.324-6.572-7.324a6.785,6.785,0,0,0-6.908,7.145c0,4.2,2.647,7.087,6.908,7.087a6.019,6.019,0,0,0,6.319-4.541H26.782a3.072,3.072,0,0,1-2.931,1.763c-2.173,0-3.315-1.273-3.315-3.436h9.739C30.291,87.965,30.307,87.728,30.307,87.491ZM20.541,85.85a2.9,2.9,0,0,1,3.078-2.883c1.863,0,2.8,1.094,2.957,2.883Z" transform="translate(0 -75.4)" fill="#405284"/>
</svg>
