<svg xmlns="http://www.w3.org/2000/svg" xmlns:xlink="http://www.w3.org/1999/xlink" width="1490" height="1057" viewBox="0 0 1490 1057">
  <defs>
    <clipPath id="clip-path">
      <rect width="1490" height="1057" fill="none"/>
    </clipPath>
  </defs>
  <g id="Cuadrícula_de_repetición_13" data-name="Cuadrícula de repetición 13" opacity="0.056" clip-path="url(#clip-path)">
    <g id="Grupo_486" data-name="Grupo 486" transform="translate(0.068 0.188)">
      <path id="Unión_10" data-name="Unión 10" d="M88.945,69a11,11,0,0,1-11-11V15.234a4,4,0,0,0-4-4H51.56a4,4,0,0,0-4,4V67.4H38.312V12.267a3.985,3.985,0,0,0-2.679-1.032H13.248a4,4,0,0,0-4,4V67.4H0V11A11,11,0,0,1,11,0H36.56a10.919,10.919,0,0,1,6.376,2.033A10.919,10.919,0,0,1,49.312,0h25.56a10.917,10.917,0,0,1,7.036,2.543A10.917,10.917,0,0,1,88.945,0H107.01V13.1h-16a4.005,4.005,0,0,0-4,4V53.188a4.005,4.005,0,0,0,4,4H131.15a4,4,0,0,0,4-4V41.723H113.615V30.49H144V58a11,11,0,0,1-11,11Z" transform="translate(-0.068 -0.188)" fill="#0f0e24"/>
      <ellipse id="Elipse_85" data-name="Elipse 85" cx="8" cy="9.5" rx="8" ry="9.5" transform="translate(129.932 -0.188)" fill="#0f0e24"/>
    </g>
    <g id="Grupo_486-2" data-name="Grupo 486" transform="translate(166.068 0.188)">
      <path id="Unión_10-2" data-name="Unión 10" d="M88.945,69a11,11,0,0,1-11-11V15.234a4,4,0,0,0-4-4H51.56a4,4,0,0,0-4,4V67.4H38.312V12.267a3.985,3.985,0,0,0-2.679-1.032H13.248a4,4,0,0,0-4,4V67.4H0V11A11,11,0,0,1,11,0H36.56a10.919,10.919,0,0,1,6.376,2.033A10.919,10.919,0,0,1,49.312,0h25.56a10.917,10.917,0,0,1,7.036,2.543A10.917,10.917,0,0,1,88.945,0H107.01V13.1h-16a4.005,4.005,0,0,0-4,4V53.188a4.005,4.005,0,0,0,4,4H131.15a4,4,0,0,0,4-4V41.723H113.615V30.49H144V58a11,11,0,0,1-11,11Z" transform="translate(-0.068 -0.188)" fill="#0f0e24"/>
      <ellipse id="Elipse_85-2" data-name="Elipse 85" cx="8" cy="9.5" rx="8" ry="9.5" transform="translate(129.932 -0.188)" fill="#0f0e24"/>
    </g>
    <g id="Grupo_486-3" data-name="Grupo 486" transform="translate(332.068 0.188)">
      <path id="Unión_10-3" data-name="Unión 10" d="M88.945,69a11,11,0,0,1-11-11V15.234a4,4,0,0,0-4-4H51.56a4,4,0,0,0-4,4V67.4H38.312V12.267a3.985,3.985,0,0,0-2.679-1.032H13.248a4,4,0,0,0-4,4V67.4H0V11A11,11,0,0,1,11,0H36.56a10.919,10.919,0,0,1,6.376,2.033A10.919,10.919,0,0,1,49.312,0h25.56a10.917,10.917,0,0,1,7.036,2.543A10.917,10.917,0,0,1,88.945,0H107.01V13.1h-16a4.005,4.005,0,0,0-4,4V53.188a4.005,4.005,0,0,0,4,4H131.15a4,4,0,0,0,4-4V41.723H113.615V30.49H144V58a11,11,0,0,1-11,11Z" transform="translate(-0.068 -0.188)" fill="#0f0e24"/>
      <ellipse id="Elipse_85-3" data-name="Elipse 85" cx="8" cy="9.5" rx="8" ry="9.5" transform="translate(129.932 -0.188)" fill="#0f0e24"/>
    </g>
    <g id="Grupo_486-4" data-name="Grupo 486" transform="translate(498.068 0.188)">
      <path id="Unión_10-4" data-name="Unión 10" d="M88.945,69a11,11,0,0,1-11-11V15.234a4,4,0,0,0-4-4H51.56a4,4,0,0,0-4,4V67.4H38.312V12.267a3.985,3.985,0,0,0-2.679-1.032H13.248a4,4,0,0,0-4,4V67.4H0V11A11,11,0,0,1,11,0H36.56a10.919,10.919,0,0,1,6.376,2.033A10.919,10.919,0,0,1,49.312,0h25.56a10.917,10.917,0,0,1,7.036,2.543A10.917,10.917,0,0,1,88.945,0H107.01V13.1h-16a4.005,4.005,0,0,0-4,4V53.188a4.005,4.005,0,0,0,4,4H131.15a4,4,0,0,0,4-4V41.723H113.615V30.49H144V58a11,11,0,0,1-11,11Z" transform="translate(-0.068 -0.188)" fill="#0f0e24"/>
      <ellipse id="Elipse_85-4" data-name="Elipse 85" cx="8" cy="9.5" rx="8" ry="9.5" transform="translate(129.932 -0.188)" fill="#0f0e24"/>
    </g>
    <g id="Grupo_486-5" data-name="Grupo 486" transform="translate(664.068 0.188)">
      <path id="Unión_10-5" data-name="Unión 10" d="M88.945,69a11,11,0,0,1-11-11V15.234a4,4,0,0,0-4-4H51.56a4,4,0,0,0-4,4V67.4H38.312V12.267a3.985,3.985,0,0,0-2.679-1.032H13.248a4,4,0,0,0-4,4V67.4H0V11A11,11,0,0,1,11,0H36.56a10.919,10.919,0,0,1,6.376,2.033A10.919,10.919,0,0,1,49.312,0h25.56a10.917,10.917,0,0,1,7.036,2.543A10.917,10.917,0,0,1,88.945,0H107.01V13.1h-16a4.005,4.005,0,0,0-4,4V53.188a4.005,4.005,0,0,0,4,4H131.15a4,4,0,0,0,4-4V41.723H113.615V30.49H144V58a11,11,0,0,1-11,11Z" transform="translate(-0.068 -0.188)" fill="#0f0e24"/>
      <ellipse id="Elipse_85-5" data-name="Elipse 85" cx="8" cy="9.5" rx="8" ry="9.5" transform="translate(129.932 -0.188)" fill="#0f0e24"/>
    </g>
    <g id="Grupo_486-6" data-name="Grupo 486" transform="translate(830.068 0.188)">
      <path id="Unión_10-6" data-name="Unión 10" d="M88.945,69a11,11,0,0,1-11-11V15.234a4,4,0,0,0-4-4H51.56a4,4,0,0,0-4,4V67.4H38.312V12.267a3.985,3.985,0,0,0-2.679-1.032H13.248a4,4,0,0,0-4,4V67.4H0V11A11,11,0,0,1,11,0H36.56a10.919,10.919,0,0,1,6.376,2.033A10.919,10.919,0,0,1,49.312,0h25.56a10.917,10.917,0,0,1,7.036,2.543A10.917,10.917,0,0,1,88.945,0H107.01V13.1h-16a4.005,4.005,0,0,0-4,4V53.188a4.005,4.005,0,0,0,4,4H131.15a4,4,0,0,0,4-4V41.723H113.615V30.49H144V58a11,11,0,0,1-11,11Z" transform="translate(-0.068 -0.188)" fill="#0f0e24"/>
      <ellipse id="Elipse_85-6" data-name="Elipse 85" cx="8" cy="9.5" rx="8" ry="9.5" transform="translate(129.932 -0.188)" fill="#0f0e24"/>
    </g>
    <g id="Grupo_486-7" data-name="Grupo 486" transform="translate(996.068 0.188)">
      <path id="Unión_10-7" data-name="Unión 10" d="M88.945,69a11,11,0,0,1-11-11V15.234a4,4,0,0,0-4-4H51.56a4,4,0,0,0-4,4V67.4H38.312V12.267a3.985,3.985,0,0,0-2.679-1.032H13.248a4,4,0,0,0-4,4V67.4H0V11A11,11,0,0,1,11,0H36.56a10.919,10.919,0,0,1,6.376,2.033A10.919,10.919,0,0,1,49.312,0h25.56a10.917,10.917,0,0,1,7.036,2.543A10.917,10.917,0,0,1,88.945,0H107.01V13.1h-16a4.005,4.005,0,0,0-4,4V53.188a4.005,4.005,0,0,0,4,4H131.15a4,4,0,0,0,4-4V41.723H113.615V30.49H144V58a11,11,0,0,1-11,11Z" transform="translate(-0.068 -0.188)" fill="#0f0e24"/>
      <ellipse id="Elipse_85-7" data-name="Elipse 85" cx="8" cy="9.5" rx="8" ry="9.5" transform="translate(129.932 -0.188)" fill="#0f0e24"/>
    </g>
    <g id="Grupo_486-8" data-name="Grupo 486" transform="translate(1162.068 0.188)">
      <path id="Unión_10-8" data-name="Unión 10" d="M88.945,69a11,11,0,0,1-11-11V15.234a4,4,0,0,0-4-4H51.56a4,4,0,0,0-4,4V67.4H38.312V12.267a3.985,3.985,0,0,0-2.679-1.032H13.248a4,4,0,0,0-4,4V67.4H0V11A11,11,0,0,1,11,0H36.56a10.919,10.919,0,0,1,6.376,2.033A10.919,10.919,0,0,1,49.312,0h25.56a10.917,10.917,0,0,1,7.036,2.543A10.917,10.917,0,0,1,88.945,0H107.01V13.1h-16a4.005,4.005,0,0,0-4,4V53.188a4.005,4.005,0,0,0,4,4H131.15a4,4,0,0,0,4-4V41.723H113.615V30.49H144V58a11,11,0,0,1-11,11Z" transform="translate(-0.068 -0.188)" fill="#0f0e24"/>
      <ellipse id="Elipse_85-8" data-name="Elipse 85" cx="8" cy="9.5" rx="8" ry="9.5" transform="translate(129.932 -0.188)" fill="#0f0e24"/>
    </g>
    <g id="Grupo_486-9" data-name="Grupo 486" transform="translate(1328.068 0.188)">
      <path id="Unión_10-9" data-name="Unión 10" d="M88.945,69a11,11,0,0,1-11-11V15.234a4,4,0,0,0-4-4H51.56a4,4,0,0,0-4,4V67.4H38.312V12.267a3.985,3.985,0,0,0-2.679-1.032H13.248a4,4,0,0,0-4,4V67.4H0V11A11,11,0,0,1,11,0H36.56a10.919,10.919,0,0,1,6.376,2.033A10.919,10.919,0,0,1,49.312,0h25.56a10.917,10.917,0,0,1,7.036,2.543A10.917,10.917,0,0,1,88.945,0H107.01V13.1h-16a4.005,4.005,0,0,0-4,4V53.188a4.005,4.005,0,0,0,4,4H131.15a4,4,0,0,0,4-4V41.723H113.615V30.49H144V58a11,11,0,0,1-11,11Z" transform="translate(-0.068 -0.188)" fill="#0f0e24"/>
      <ellipse id="Elipse_85-9" data-name="Elipse 85" cx="8" cy="9.5" rx="8" ry="9.5" transform="translate(129.932 -0.188)" fill="#0f0e24"/>
    </g>
    <g id="Grupo_486-10" data-name="Grupo 486" transform="translate(0.068 89.188)">
      <path id="Unión_10-10" data-name="Unión 10" d="M88.945,69a11,11,0,0,1-11-11V15.234a4,4,0,0,0-4-4H51.56a4,4,0,0,0-4,4V67.4H38.312V12.267a3.985,3.985,0,0,0-2.679-1.032H13.248a4,4,0,0,0-4,4V67.4H0V11A11,11,0,0,1,11,0H36.56a10.919,10.919,0,0,1,6.376,2.033A10.919,10.919,0,0,1,49.312,0h25.56a10.917,10.917,0,0,1,7.036,2.543A10.917,10.917,0,0,1,88.945,0H107.01V13.1h-16a4.005,4.005,0,0,0-4,4V53.188a4.005,4.005,0,0,0,4,4H131.15a4,4,0,0,0,4-4V41.723H113.615V30.49H144V58a11,11,0,0,1-11,11Z" transform="translate(-0.068 -0.188)" fill="#0f0e24"/>
      <ellipse id="Elipse_85-10" data-name="Elipse 85" cx="8" cy="9.5" rx="8" ry="9.5" transform="translate(129.932 -0.188)" fill="#0f0e24"/>
    </g>
    <g id="Grupo_486-11" data-name="Grupo 486" transform="translate(166.068 89.188)">
      <path id="Unión_10-11" data-name="Unión 10" d="M88.945,69a11,11,0,0,1-11-11V15.234a4,4,0,0,0-4-4H51.56a4,4,0,0,0-4,4V67.4H38.312V12.267a3.985,3.985,0,0,0-2.679-1.032H13.248a4,4,0,0,0-4,4V67.4H0V11A11,11,0,0,1,11,0H36.56a10.919,10.919,0,0,1,6.376,2.033A10.919,10.919,0,0,1,49.312,0h25.56a10.917,10.917,0,0,1,7.036,2.543A10.917,10.917,0,0,1,88.945,0H107.01V13.1h-16a4.005,4.005,0,0,0-4,4V53.188a4.005,4.005,0,0,0,4,4H131.15a4,4,0,0,0,4-4V41.723H113.615V30.49H144V58a11,11,0,0,1-11,11Z" transform="translate(-0.068 -0.188)" fill="#0f0e24"/>
      <ellipse id="Elipse_85-11" data-name="Elipse 85" cx="8" cy="9.5" rx="8" ry="9.5" transform="translate(129.932 -0.188)" fill="#0f0e24"/>
    </g>
    <g id="Grupo_486-12" data-name="Grupo 486" transform="translate(332.068 89.188)">
      <path id="Unión_10-12" data-name="Unión 10" d="M88.945,69a11,11,0,0,1-11-11V15.234a4,4,0,0,0-4-4H51.56a4,4,0,0,0-4,4V67.4H38.312V12.267a3.985,3.985,0,0,0-2.679-1.032H13.248a4,4,0,0,0-4,4V67.4H0V11A11,11,0,0,1,11,0H36.56a10.919,10.919,0,0,1,6.376,2.033A10.919,10.919,0,0,1,49.312,0h25.56a10.917,10.917,0,0,1,7.036,2.543A10.917,10.917,0,0,1,88.945,0H107.01V13.1h-16a4.005,4.005,0,0,0-4,4V53.188a4.005,4.005,0,0,0,4,4H131.15a4,4,0,0,0,4-4V41.723H113.615V30.49H144V58a11,11,0,0,1-11,11Z" transform="translate(-0.068 -0.188)" fill="#0f0e24"/>
      <ellipse id="Elipse_85-12" data-name="Elipse 85" cx="8" cy="9.5" rx="8" ry="9.5" transform="translate(129.932 -0.188)" fill="#0f0e24"/>
    </g>
    <g id="Grupo_486-13" data-name="Grupo 486" transform="translate(498.068 89.188)">
      <path id="Unión_10-13" data-name="Unión 10" d="M88.945,69a11,11,0,0,1-11-11V15.234a4,4,0,0,0-4-4H51.56a4,4,0,0,0-4,4V67.4H38.312V12.267a3.985,3.985,0,0,0-2.679-1.032H13.248a4,4,0,0,0-4,4V67.4H0V11A11,11,0,0,1,11,0H36.56a10.919,10.919,0,0,1,6.376,2.033A10.919,10.919,0,0,1,49.312,0h25.56a10.917,10.917,0,0,1,7.036,2.543A10.917,10.917,0,0,1,88.945,0H107.01V13.1h-16a4.005,4.005,0,0,0-4,4V53.188a4.005,4.005,0,0,0,4,4H131.15a4,4,0,0,0,4-4V41.723H113.615V30.49H144V58a11,11,0,0,1-11,11Z" transform="translate(-0.068 -0.188)" fill="#0f0e24"/>
      <ellipse id="Elipse_85-13" data-name="Elipse 85" cx="8" cy="9.5" rx="8" ry="9.5" transform="translate(129.932 -0.188)" fill="#0f0e24"/>
    </g>
    <g id="Grupo_486-14" data-name="Grupo 486" transform="translate(664.068 89.188)">
      <path id="Unión_10-14" data-name="Unión 10" d="M88.945,69a11,11,0,0,1-11-11V15.234a4,4,0,0,0-4-4H51.56a4,4,0,0,0-4,4V67.4H38.312V12.267a3.985,3.985,0,0,0-2.679-1.032H13.248a4,4,0,0,0-4,4V67.4H0V11A11,11,0,0,1,11,0H36.56a10.919,10.919,0,0,1,6.376,2.033A10.919,10.919,0,0,1,49.312,0h25.56a10.917,10.917,0,0,1,7.036,2.543A10.917,10.917,0,0,1,88.945,0H107.01V13.1h-16a4.005,4.005,0,0,0-4,4V53.188a4.005,4.005,0,0,0,4,4H131.15a4,4,0,0,0,4-4V41.723H113.615V30.49H144V58a11,11,0,0,1-11,11Z" transform="translate(-0.068 -0.188)" fill="#0f0e24"/>
      <ellipse id="Elipse_85-14" data-name="Elipse 85" cx="8" cy="9.5" rx="8" ry="9.5" transform="translate(129.932 -0.188)" fill="#0f0e24"/>
    </g>
    <g id="Grupo_486-15" data-name="Grupo 486" transform="translate(830.068 89.188)">
      <path id="Unión_10-15" data-name="Unión 10" d="M88.945,69a11,11,0,0,1-11-11V15.234a4,4,0,0,0-4-4H51.56a4,4,0,0,0-4,4V67.4H38.312V12.267a3.985,3.985,0,0,0-2.679-1.032H13.248a4,4,0,0,0-4,4V67.4H0V11A11,11,0,0,1,11,0H36.56a10.919,10.919,0,0,1,6.376,2.033A10.919,10.919,0,0,1,49.312,0h25.56a10.917,10.917,0,0,1,7.036,2.543A10.917,10.917,0,0,1,88.945,0H107.01V13.1h-16a4.005,4.005,0,0,0-4,4V53.188a4.005,4.005,0,0,0,4,4H131.15a4,4,0,0,0,4-4V41.723H113.615V30.49H144V58a11,11,0,0,1-11,11Z" transform="translate(-0.068 -0.188)" fill="#0f0e24"/>
      <ellipse id="Elipse_85-15" data-name="Elipse 85" cx="8" cy="9.5" rx="8" ry="9.5" transform="translate(129.932 -0.188)" fill="#0f0e24"/>
    </g>
    <g id="Grupo_486-16" data-name="Grupo 486" transform="translate(996.068 89.188)">
      <path id="Unión_10-16" data-name="Unión 10" d="M88.945,69a11,11,0,0,1-11-11V15.234a4,4,0,0,0-4-4H51.56a4,4,0,0,0-4,4V67.4H38.312V12.267a3.985,3.985,0,0,0-2.679-1.032H13.248a4,4,0,0,0-4,4V67.4H0V11A11,11,0,0,1,11,0H36.56a10.919,10.919,0,0,1,6.376,2.033A10.919,10.919,0,0,1,49.312,0h25.56a10.917,10.917,0,0,1,7.036,2.543A10.917,10.917,0,0,1,88.945,0H107.01V13.1h-16a4.005,4.005,0,0,0-4,4V53.188a4.005,4.005,0,0,0,4,4H131.15a4,4,0,0,0,4-4V41.723H113.615V30.49H144V58a11,11,0,0,1-11,11Z" transform="translate(-0.068 -0.188)" fill="#0f0e24"/>
      <ellipse id="Elipse_85-16" data-name="Elipse 85" cx="8" cy="9.5" rx="8" ry="9.5" transform="translate(129.932 -0.188)" fill="#0f0e24"/>
    </g>
    <g id="Grupo_486-17" data-name="Grupo 486" transform="translate(1162.068 89.188)">
      <path id="Unión_10-17" data-name="Unión 10" d="M88.945,69a11,11,0,0,1-11-11V15.234a4,4,0,0,0-4-4H51.56a4,4,0,0,0-4,4V67.4H38.312V12.267a3.985,3.985,0,0,0-2.679-1.032H13.248a4,4,0,0,0-4,4V67.4H0V11A11,11,0,0,1,11,0H36.56a10.919,10.919,0,0,1,6.376,2.033A10.919,10.919,0,0,1,49.312,0h25.56a10.917,10.917,0,0,1,7.036,2.543A10.917,10.917,0,0,1,88.945,0H107.01V13.1h-16a4.005,4.005,0,0,0-4,4V53.188a4.005,4.005,0,0,0,4,4H131.15a4,4,0,0,0,4-4V41.723H113.615V30.49H144V58a11,11,0,0,1-11,11Z" transform="translate(-0.068 -0.188)" fill="#0f0e24"/>
      <ellipse id="Elipse_85-17" data-name="Elipse 85" cx="8" cy="9.5" rx="8" ry="9.5" transform="translate(129.932 -0.188)" fill="#0f0e24"/>
    </g>
    <g id="Grupo_486-18" data-name="Grupo 486" transform="translate(1328.068 89.188)">
      <path id="Unión_10-18" data-name="Unión 10" d="M88.945,69a11,11,0,0,1-11-11V15.234a4,4,0,0,0-4-4H51.56a4,4,0,0,0-4,4V67.4H38.312V12.267a3.985,3.985,0,0,0-2.679-1.032H13.248a4,4,0,0,0-4,4V67.4H0V11A11,11,0,0,1,11,0H36.56a10.919,10.919,0,0,1,6.376,2.033A10.919,10.919,0,0,1,49.312,0h25.56a10.917,10.917,0,0,1,7.036,2.543A10.917,10.917,0,0,1,88.945,0H107.01V13.1h-16a4.005,4.005,0,0,0-4,4V53.188a4.005,4.005,0,0,0,4,4H131.15a4,4,0,0,0,4-4V41.723H113.615V30.49H144V58a11,11,0,0,1-11,11Z" transform="translate(-0.068 -0.188)" fill="#0f0e24"/>
      <ellipse id="Elipse_85-18" data-name="Elipse 85" cx="8" cy="9.5" rx="8" ry="9.5" transform="translate(129.932 -0.188)" fill="#0f0e24"/>
    </g>
    <g id="Grupo_486-19" data-name="Grupo 486" transform="translate(0.068 178.188)">
      <path id="Unión_10-19" data-name="Unión 10" d="M88.945,69a11,11,0,0,1-11-11V15.234a4,4,0,0,0-4-4H51.56a4,4,0,0,0-4,4V67.4H38.312V12.267a3.985,3.985,0,0,0-2.679-1.032H13.248a4,4,0,0,0-4,4V67.4H0V11A11,11,0,0,1,11,0H36.56a10.919,10.919,0,0,1,6.376,2.033A10.919,10.919,0,0,1,49.312,0h25.56a10.917,10.917,0,0,1,7.036,2.543A10.917,10.917,0,0,1,88.945,0H107.01V13.1h-16a4.005,4.005,0,0,0-4,4V53.188a4.005,4.005,0,0,0,4,4H131.15a4,4,0,0,0,4-4V41.723H113.615V30.49H144V58a11,11,0,0,1-11,11Z" transform="translate(-0.068 -0.188)" fill="#0f0e24"/>
      <ellipse id="Elipse_85-19" data-name="Elipse 85" cx="8" cy="9.5" rx="8" ry="9.5" transform="translate(129.932 -0.188)" fill="#0f0e24"/>
    </g>
    <g id="Grupo_486-20" data-name="Grupo 486" transform="translate(166.068 178.188)">
      <path id="Unión_10-20" data-name="Unión 10" d="M88.945,69a11,11,0,0,1-11-11V15.234a4,4,0,0,0-4-4H51.56a4,4,0,0,0-4,4V67.4H38.312V12.267a3.985,3.985,0,0,0-2.679-1.032H13.248a4,4,0,0,0-4,4V67.4H0V11A11,11,0,0,1,11,0H36.56a10.919,10.919,0,0,1,6.376,2.033A10.919,10.919,0,0,1,49.312,0h25.56a10.917,10.917,0,0,1,7.036,2.543A10.917,10.917,0,0,1,88.945,0H107.01V13.1h-16a4.005,4.005,0,0,0-4,4V53.188a4.005,4.005,0,0,0,4,4H131.15a4,4,0,0,0,4-4V41.723H113.615V30.49H144V58a11,11,0,0,1-11,11Z" transform="translate(-0.068 -0.188)" fill="#0f0e24"/>
      <ellipse id="Elipse_85-20" data-name="Elipse 85" cx="8" cy="9.5" rx="8" ry="9.5" transform="translate(129.932 -0.188)" fill="#0f0e24"/>
    </g>
    <g id="Grupo_486-21" data-name="Grupo 486" transform="translate(332.068 178.188)">
      <path id="Unión_10-21" data-name="Unión 10" d="M88.945,69a11,11,0,0,1-11-11V15.234a4,4,0,0,0-4-4H51.56a4,4,0,0,0-4,4V67.4H38.312V12.267a3.985,3.985,0,0,0-2.679-1.032H13.248a4,4,0,0,0-4,4V67.4H0V11A11,11,0,0,1,11,0H36.56a10.919,10.919,0,0,1,6.376,2.033A10.919,10.919,0,0,1,49.312,0h25.56a10.917,10.917,0,0,1,7.036,2.543A10.917,10.917,0,0,1,88.945,0H107.01V13.1h-16a4.005,4.005,0,0,0-4,4V53.188a4.005,4.005,0,0,0,4,4H131.15a4,4,0,0,0,4-4V41.723H113.615V30.49H144V58a11,11,0,0,1-11,11Z" transform="translate(-0.068 -0.188)" fill="#0f0e24"/>
      <ellipse id="Elipse_85-21" data-name="Elipse 85" cx="8" cy="9.5" rx="8" ry="9.5" transform="translate(129.932 -0.188)" fill="#0f0e24"/>
    </g>
    <g id="Grupo_486-22" data-name="Grupo 486" transform="translate(498.068 178.188)">
      <path id="Unión_10-22" data-name="Unión 10" d="M88.945,69a11,11,0,0,1-11-11V15.234a4,4,0,0,0-4-4H51.56a4,4,0,0,0-4,4V67.4H38.312V12.267a3.985,3.985,0,0,0-2.679-1.032H13.248a4,4,0,0,0-4,4V67.4H0V11A11,11,0,0,1,11,0H36.56a10.919,10.919,0,0,1,6.376,2.033A10.919,10.919,0,0,1,49.312,0h25.56a10.917,10.917,0,0,1,7.036,2.543A10.917,10.917,0,0,1,88.945,0H107.01V13.1h-16a4.005,4.005,0,0,0-4,4V53.188a4.005,4.005,0,0,0,4,4H131.15a4,4,0,0,0,4-4V41.723H113.615V30.49H144V58a11,11,0,0,1-11,11Z" transform="translate(-0.068 -0.188)" fill="#0f0e24"/>
      <ellipse id="Elipse_85-22" data-name="Elipse 85" cx="8" cy="9.5" rx="8" ry="9.5" transform="translate(129.932 -0.188)" fill="#0f0e24"/>
    </g>
    <g id="Grupo_486-23" data-name="Grupo 486" transform="translate(664.068 178.188)">
      <path id="Unión_10-23" data-name="Unión 10" d="M88.945,69a11,11,0,0,1-11-11V15.234a4,4,0,0,0-4-4H51.56a4,4,0,0,0-4,4V67.4H38.312V12.267a3.985,3.985,0,0,0-2.679-1.032H13.248a4,4,0,0,0-4,4V67.4H0V11A11,11,0,0,1,11,0H36.56a10.919,10.919,0,0,1,6.376,2.033A10.919,10.919,0,0,1,49.312,0h25.56a10.917,10.917,0,0,1,7.036,2.543A10.917,10.917,0,0,1,88.945,0H107.01V13.1h-16a4.005,4.005,0,0,0-4,4V53.188a4.005,4.005,0,0,0,4,4H131.15a4,4,0,0,0,4-4V41.723H113.615V30.49H144V58a11,11,0,0,1-11,11Z" transform="translate(-0.068 -0.188)" fill="#0f0e24"/>
      <ellipse id="Elipse_85-23" data-name="Elipse 85" cx="8" cy="9.5" rx="8" ry="9.5" transform="translate(129.932 -0.188)" fill="#0f0e24"/>
    </g>
    <g id="Grupo_486-24" data-name="Grupo 486" transform="translate(830.068 178.188)">
      <path id="Unión_10-24" data-name="Unión 10" d="M88.945,69a11,11,0,0,1-11-11V15.234a4,4,0,0,0-4-4H51.56a4,4,0,0,0-4,4V67.4H38.312V12.267a3.985,3.985,0,0,0-2.679-1.032H13.248a4,4,0,0,0-4,4V67.4H0V11A11,11,0,0,1,11,0H36.56a10.919,10.919,0,0,1,6.376,2.033A10.919,10.919,0,0,1,49.312,0h25.56a10.917,10.917,0,0,1,7.036,2.543A10.917,10.917,0,0,1,88.945,0H107.01V13.1h-16a4.005,4.005,0,0,0-4,4V53.188a4.005,4.005,0,0,0,4,4H131.15a4,4,0,0,0,4-4V41.723H113.615V30.49H144V58a11,11,0,0,1-11,11Z" transform="translate(-0.068 -0.188)" fill="#0f0e24"/>
      <ellipse id="Elipse_85-24" data-name="Elipse 85" cx="8" cy="9.5" rx="8" ry="9.5" transform="translate(129.932 -0.188)" fill="#0f0e24"/>
    </g>
    <g id="Grupo_486-25" data-name="Grupo 486" transform="translate(996.068 178.188)">
      <path id="Unión_10-25" data-name="Unión 10" d="M88.945,69a11,11,0,0,1-11-11V15.234a4,4,0,0,0-4-4H51.56a4,4,0,0,0-4,4V67.4H38.312V12.267a3.985,3.985,0,0,0-2.679-1.032H13.248a4,4,0,0,0-4,4V67.4H0V11A11,11,0,0,1,11,0H36.56a10.919,10.919,0,0,1,6.376,2.033A10.919,10.919,0,0,1,49.312,0h25.56a10.917,10.917,0,0,1,7.036,2.543A10.917,10.917,0,0,1,88.945,0H107.01V13.1h-16a4.005,4.005,0,0,0-4,4V53.188a4.005,4.005,0,0,0,4,4H131.15a4,4,0,0,0,4-4V41.723H113.615V30.49H144V58a11,11,0,0,1-11,11Z" transform="translate(-0.068 -0.188)" fill="#0f0e24"/>
      <ellipse id="Elipse_85-25" data-name="Elipse 85" cx="8" cy="9.5" rx="8" ry="9.5" transform="translate(129.932 -0.188)" fill="#0f0e24"/>
    </g>
    <g id="Grupo_486-26" data-name="Grupo 486" transform="translate(1162.068 178.188)">
      <path id="Unión_10-26" data-name="Unión 10" d="M88.945,69a11,11,0,0,1-11-11V15.234a4,4,0,0,0-4-4H51.56a4,4,0,0,0-4,4V67.4H38.312V12.267a3.985,3.985,0,0,0-2.679-1.032H13.248a4,4,0,0,0-4,4V67.4H0V11A11,11,0,0,1,11,0H36.56a10.919,10.919,0,0,1,6.376,2.033A10.919,10.919,0,0,1,49.312,0h25.56a10.917,10.917,0,0,1,7.036,2.543A10.917,10.917,0,0,1,88.945,0H107.01V13.1h-16a4.005,4.005,0,0,0-4,4V53.188a4.005,4.005,0,0,0,4,4H131.15a4,4,0,0,0,4-4V41.723H113.615V30.49H144V58a11,11,0,0,1-11,11Z" transform="translate(-0.068 -0.188)" fill="#0f0e24"/>
      <ellipse id="Elipse_85-26" data-name="Elipse 85" cx="8" cy="9.5" rx="8" ry="9.5" transform="translate(129.932 -0.188)" fill="#0f0e24"/>
    </g>
    <g id="Grupo_486-27" data-name="Grupo 486" transform="translate(1328.068 178.188)">
      <path id="Unión_10-27" data-name="Unión 10" d="M88.945,69a11,11,0,0,1-11-11V15.234a4,4,0,0,0-4-4H51.56a4,4,0,0,0-4,4V67.4H38.312V12.267a3.985,3.985,0,0,0-2.679-1.032H13.248a4,4,0,0,0-4,4V67.4H0V11A11,11,0,0,1,11,0H36.56a10.919,10.919,0,0,1,6.376,2.033A10.919,10.919,0,0,1,49.312,0h25.56a10.917,10.917,0,0,1,7.036,2.543A10.917,10.917,0,0,1,88.945,0H107.01V13.1h-16a4.005,4.005,0,0,0-4,4V53.188a4.005,4.005,0,0,0,4,4H131.15a4,4,0,0,0,4-4V41.723H113.615V30.49H144V58a11,11,0,0,1-11,11Z" transform="translate(-0.068 -0.188)" fill="#0f0e24"/>
      <ellipse id="Elipse_85-27" data-name="Elipse 85" cx="8" cy="9.5" rx="8" ry="9.5" transform="translate(129.932 -0.188)" fill="#0f0e24"/>
    </g>
    <g id="Grupo_486-28" data-name="Grupo 486" transform="translate(0.068 267.188)">
      <path id="Unión_10-28" data-name="Unión 10" d="M88.945,69a11,11,0,0,1-11-11V15.234a4,4,0,0,0-4-4H51.56a4,4,0,0,0-4,4V67.4H38.312V12.267a3.985,3.985,0,0,0-2.679-1.032H13.248a4,4,0,0,0-4,4V67.4H0V11A11,11,0,0,1,11,0H36.56a10.919,10.919,0,0,1,6.376,2.033A10.919,10.919,0,0,1,49.312,0h25.56a10.917,10.917,0,0,1,7.036,2.543A10.917,10.917,0,0,1,88.945,0H107.01V13.1h-16a4.005,4.005,0,0,0-4,4V53.188a4.005,4.005,0,0,0,4,4H131.15a4,4,0,0,0,4-4V41.723H113.615V30.49H144V58a11,11,0,0,1-11,11Z" transform="translate(-0.068 -0.188)" fill="#0f0e24"/>
      <ellipse id="Elipse_85-28" data-name="Elipse 85" cx="8" cy="9.5" rx="8" ry="9.5" transform="translate(129.932 -0.188)" fill="#0f0e24"/>
    </g>
    <g id="Grupo_486-29" data-name="Grupo 486" transform="translate(166.068 267.188)">
      <path id="Unión_10-29" data-name="Unión 10" d="M88.945,69a11,11,0,0,1-11-11V15.234a4,4,0,0,0-4-4H51.56a4,4,0,0,0-4,4V67.4H38.312V12.267a3.985,3.985,0,0,0-2.679-1.032H13.248a4,4,0,0,0-4,4V67.4H0V11A11,11,0,0,1,11,0H36.56a10.919,10.919,0,0,1,6.376,2.033A10.919,10.919,0,0,1,49.312,0h25.56a10.917,10.917,0,0,1,7.036,2.543A10.917,10.917,0,0,1,88.945,0H107.01V13.1h-16a4.005,4.005,0,0,0-4,4V53.188a4.005,4.005,0,0,0,4,4H131.15a4,4,0,0,0,4-4V41.723H113.615V30.49H144V58a11,11,0,0,1-11,11Z" transform="translate(-0.068 -0.188)" fill="#0f0e24"/>
      <ellipse id="Elipse_85-29" data-name="Elipse 85" cx="8" cy="9.5" rx="8" ry="9.5" transform="translate(129.932 -0.188)" fill="#0f0e24"/>
    </g>
    <g id="Grupo_486-30" data-name="Grupo 486" transform="translate(332.068 267.188)">
      <path id="Unión_10-30" data-name="Unión 10" d="M88.945,69a11,11,0,0,1-11-11V15.234a4,4,0,0,0-4-4H51.56a4,4,0,0,0-4,4V67.4H38.312V12.267a3.985,3.985,0,0,0-2.679-1.032H13.248a4,4,0,0,0-4,4V67.4H0V11A11,11,0,0,1,11,0H36.56a10.919,10.919,0,0,1,6.376,2.033A10.919,10.919,0,0,1,49.312,0h25.56a10.917,10.917,0,0,1,7.036,2.543A10.917,10.917,0,0,1,88.945,0H107.01V13.1h-16a4.005,4.005,0,0,0-4,4V53.188a4.005,4.005,0,0,0,4,4H131.15a4,4,0,0,0,4-4V41.723H113.615V30.49H144V58a11,11,0,0,1-11,11Z" transform="translate(-0.068 -0.188)" fill="#0f0e24"/>
      <ellipse id="Elipse_85-30" data-name="Elipse 85" cx="8" cy="9.5" rx="8" ry="9.5" transform="translate(129.932 -0.188)" fill="#0f0e24"/>
    </g>
    <g id="Grupo_486-31" data-name="Grupo 486" transform="translate(498.068 267.188)">
      <path id="Unión_10-31" data-name="Unión 10" d="M88.945,69a11,11,0,0,1-11-11V15.234a4,4,0,0,0-4-4H51.56a4,4,0,0,0-4,4V67.4H38.312V12.267a3.985,3.985,0,0,0-2.679-1.032H13.248a4,4,0,0,0-4,4V67.4H0V11A11,11,0,0,1,11,0H36.56a10.919,10.919,0,0,1,6.376,2.033A10.919,10.919,0,0,1,49.312,0h25.56a10.917,10.917,0,0,1,7.036,2.543A10.917,10.917,0,0,1,88.945,0H107.01V13.1h-16a4.005,4.005,0,0,0-4,4V53.188a4.005,4.005,0,0,0,4,4H131.15a4,4,0,0,0,4-4V41.723H113.615V30.49H144V58a11,11,0,0,1-11,11Z" transform="translate(-0.068 -0.188)" fill="#0f0e24"/>
      <ellipse id="Elipse_85-31" data-name="Elipse 85" cx="8" cy="9.5" rx="8" ry="9.5" transform="translate(129.932 -0.188)" fill="#0f0e24"/>
    </g>
    <g id="Grupo_486-32" data-name="Grupo 486" transform="translate(664.068 267.188)">
      <path id="Unión_10-32" data-name="Unión 10" d="M88.945,69a11,11,0,0,1-11-11V15.234a4,4,0,0,0-4-4H51.56a4,4,0,0,0-4,4V67.4H38.312V12.267a3.985,3.985,0,0,0-2.679-1.032H13.248a4,4,0,0,0-4,4V67.4H0V11A11,11,0,0,1,11,0H36.56a10.919,10.919,0,0,1,6.376,2.033A10.919,10.919,0,0,1,49.312,0h25.56a10.917,10.917,0,0,1,7.036,2.543A10.917,10.917,0,0,1,88.945,0H107.01V13.1h-16a4.005,4.005,0,0,0-4,4V53.188a4.005,4.005,0,0,0,4,4H131.15a4,4,0,0,0,4-4V41.723H113.615V30.49H144V58a11,11,0,0,1-11,11Z" transform="translate(-0.068 -0.188)" fill="#0f0e24"/>
      <ellipse id="Elipse_85-32" data-name="Elipse 85" cx="8" cy="9.5" rx="8" ry="9.5" transform="translate(129.932 -0.188)" fill="#0f0e24"/>
    </g>
    <g id="Grupo_486-33" data-name="Grupo 486" transform="translate(830.068 267.188)">
      <path id="Unión_10-33" data-name="Unión 10" d="M88.945,69a11,11,0,0,1-11-11V15.234a4,4,0,0,0-4-4H51.56a4,4,0,0,0-4,4V67.4H38.312V12.267a3.985,3.985,0,0,0-2.679-1.032H13.248a4,4,0,0,0-4,4V67.4H0V11A11,11,0,0,1,11,0H36.56a10.919,10.919,0,0,1,6.376,2.033A10.919,10.919,0,0,1,49.312,0h25.56a10.917,10.917,0,0,1,7.036,2.543A10.917,10.917,0,0,1,88.945,0H107.01V13.1h-16a4.005,4.005,0,0,0-4,4V53.188a4.005,4.005,0,0,0,4,4H131.15a4,4,0,0,0,4-4V41.723H113.615V30.49H144V58a11,11,0,0,1-11,11Z" transform="translate(-0.068 -0.188)" fill="#0f0e24"/>
      <ellipse id="Elipse_85-33" data-name="Elipse 85" cx="8" cy="9.5" rx="8" ry="9.5" transform="translate(129.932 -0.188)" fill="#0f0e24"/>
    </g>
    <g id="Grupo_486-34" data-name="Grupo 486" transform="translate(996.068 267.188)">
      <path id="Unión_10-34" data-name="Unión 10" d="M88.945,69a11,11,0,0,1-11-11V15.234a4,4,0,0,0-4-4H51.56a4,4,0,0,0-4,4V67.4H38.312V12.267a3.985,3.985,0,0,0-2.679-1.032H13.248a4,4,0,0,0-4,4V67.4H0V11A11,11,0,0,1,11,0H36.56a10.919,10.919,0,0,1,6.376,2.033A10.919,10.919,0,0,1,49.312,0h25.56a10.917,10.917,0,0,1,7.036,2.543A10.917,10.917,0,0,1,88.945,0H107.01V13.1h-16a4.005,4.005,0,0,0-4,4V53.188a4.005,4.005,0,0,0,4,4H131.15a4,4,0,0,0,4-4V41.723H113.615V30.49H144V58a11,11,0,0,1-11,11Z" transform="translate(-0.068 -0.188)" fill="#0f0e24"/>
      <ellipse id="Elipse_85-34" data-name="Elipse 85" cx="8" cy="9.5" rx="8" ry="9.5" transform="translate(129.932 -0.188)" fill="#0f0e24"/>
    </g>
    <g id="Grupo_486-35" data-name="Grupo 486" transform="translate(1162.068 267.188)">
      <path id="Unión_10-35" data-name="Unión 10" d="M88.945,69a11,11,0,0,1-11-11V15.234a4,4,0,0,0-4-4H51.56a4,4,0,0,0-4,4V67.4H38.312V12.267a3.985,3.985,0,0,0-2.679-1.032H13.248a4,4,0,0,0-4,4V67.4H0V11A11,11,0,0,1,11,0H36.56a10.919,10.919,0,0,1,6.376,2.033A10.919,10.919,0,0,1,49.312,0h25.56a10.917,10.917,0,0,1,7.036,2.543A10.917,10.917,0,0,1,88.945,0H107.01V13.1h-16a4.005,4.005,0,0,0-4,4V53.188a4.005,4.005,0,0,0,4,4H131.15a4,4,0,0,0,4-4V41.723H113.615V30.49H144V58a11,11,0,0,1-11,11Z" transform="translate(-0.068 -0.188)" fill="#0f0e24"/>
      <ellipse id="Elipse_85-35" data-name="Elipse 85" cx="8" cy="9.5" rx="8" ry="9.5" transform="translate(129.932 -0.188)" fill="#0f0e24"/>
    </g>
    <g id="Grupo_486-36" data-name="Grupo 486" transform="translate(1328.068 267.188)">
      <path id="Unión_10-36" data-name="Unión 10" d="M88.945,69a11,11,0,0,1-11-11V15.234a4,4,0,0,0-4-4H51.56a4,4,0,0,0-4,4V67.4H38.312V12.267a3.985,3.985,0,0,0-2.679-1.032H13.248a4,4,0,0,0-4,4V67.4H0V11A11,11,0,0,1,11,0H36.56a10.919,10.919,0,0,1,6.376,2.033A10.919,10.919,0,0,1,49.312,0h25.56a10.917,10.917,0,0,1,7.036,2.543A10.917,10.917,0,0,1,88.945,0H107.01V13.1h-16a4.005,4.005,0,0,0-4,4V53.188a4.005,4.005,0,0,0,4,4H131.15a4,4,0,0,0,4-4V41.723H113.615V30.49H144V58a11,11,0,0,1-11,11Z" transform="translate(-0.068 -0.188)" fill="#0f0e24"/>
      <ellipse id="Elipse_85-36" data-name="Elipse 85" cx="8" cy="9.5" rx="8" ry="9.5" transform="translate(129.932 -0.188)" fill="#0f0e24"/>
    </g>
    <g id="Grupo_486-37" data-name="Grupo 486" transform="translate(0.068 356.188)">
      <path id="Unión_10-37" data-name="Unión 10" d="M88.945,69a11,11,0,0,1-11-11V15.234a4,4,0,0,0-4-4H51.56a4,4,0,0,0-4,4V67.4H38.312V12.267a3.985,3.985,0,0,0-2.679-1.032H13.248a4,4,0,0,0-4,4V67.4H0V11A11,11,0,0,1,11,0H36.56a10.919,10.919,0,0,1,6.376,2.033A10.919,10.919,0,0,1,49.312,0h25.56a10.917,10.917,0,0,1,7.036,2.543A10.917,10.917,0,0,1,88.945,0H107.01V13.1h-16a4.005,4.005,0,0,0-4,4V53.188a4.005,4.005,0,0,0,4,4H131.15a4,4,0,0,0,4-4V41.723H113.615V30.49H144V58a11,11,0,0,1-11,11Z" transform="translate(-0.068 -0.188)" fill="#0f0e24"/>
      <ellipse id="Elipse_85-37" data-name="Elipse 85" cx="8" cy="9.5" rx="8" ry="9.5" transform="translate(129.932 -0.188)" fill="#0f0e24"/>
    </g>
    <g id="Grupo_486-38" data-name="Grupo 486" transform="translate(166.068 356.188)">
      <path id="Unión_10-38" data-name="Unión 10" d="M88.945,69a11,11,0,0,1-11-11V15.234a4,4,0,0,0-4-4H51.56a4,4,0,0,0-4,4V67.4H38.312V12.267a3.985,3.985,0,0,0-2.679-1.032H13.248a4,4,0,0,0-4,4V67.4H0V11A11,11,0,0,1,11,0H36.56a10.919,10.919,0,0,1,6.376,2.033A10.919,10.919,0,0,1,49.312,0h25.56a10.917,10.917,0,0,1,7.036,2.543A10.917,10.917,0,0,1,88.945,0H107.01V13.1h-16a4.005,4.005,0,0,0-4,4V53.188a4.005,4.005,0,0,0,4,4H131.15a4,4,0,0,0,4-4V41.723H113.615V30.49H144V58a11,11,0,0,1-11,11Z" transform="translate(-0.068 -0.188)" fill="#0f0e24"/>
      <ellipse id="Elipse_85-38" data-name="Elipse 85" cx="8" cy="9.5" rx="8" ry="9.5" transform="translate(129.932 -0.188)" fill="#0f0e24"/>
    </g>
    <g id="Grupo_486-39" data-name="Grupo 486" transform="translate(332.068 356.188)">
      <path id="Unión_10-39" data-name="Unión 10" d="M88.945,69a11,11,0,0,1-11-11V15.234a4,4,0,0,0-4-4H51.56a4,4,0,0,0-4,4V67.4H38.312V12.267a3.985,3.985,0,0,0-2.679-1.032H13.248a4,4,0,0,0-4,4V67.4H0V11A11,11,0,0,1,11,0H36.56a10.919,10.919,0,0,1,6.376,2.033A10.919,10.919,0,0,1,49.312,0h25.56a10.917,10.917,0,0,1,7.036,2.543A10.917,10.917,0,0,1,88.945,0H107.01V13.1h-16a4.005,4.005,0,0,0-4,4V53.188a4.005,4.005,0,0,0,4,4H131.15a4,4,0,0,0,4-4V41.723H113.615V30.49H144V58a11,11,0,0,1-11,11Z" transform="translate(-0.068 -0.188)" fill="#0f0e24"/>
      <ellipse id="Elipse_85-39" data-name="Elipse 85" cx="8" cy="9.5" rx="8" ry="9.5" transform="translate(129.932 -0.188)" fill="#0f0e24"/>
    </g>
    <g id="Grupo_486-40" data-name="Grupo 486" transform="translate(498.068 356.188)">
      <path id="Unión_10-40" data-name="Unión 10" d="M88.945,69a11,11,0,0,1-11-11V15.234a4,4,0,0,0-4-4H51.56a4,4,0,0,0-4,4V67.4H38.312V12.267a3.985,3.985,0,0,0-2.679-1.032H13.248a4,4,0,0,0-4,4V67.4H0V11A11,11,0,0,1,11,0H36.56a10.919,10.919,0,0,1,6.376,2.033A10.919,10.919,0,0,1,49.312,0h25.56a10.917,10.917,0,0,1,7.036,2.543A10.917,10.917,0,0,1,88.945,0H107.01V13.1h-16a4.005,4.005,0,0,0-4,4V53.188a4.005,4.005,0,0,0,4,4H131.15a4,4,0,0,0,4-4V41.723H113.615V30.49H144V58a11,11,0,0,1-11,11Z" transform="translate(-0.068 -0.188)" fill="#0f0e24"/>
      <ellipse id="Elipse_85-40" data-name="Elipse 85" cx="8" cy="9.5" rx="8" ry="9.5" transform="translate(129.932 -0.188)" fill="#0f0e24"/>
    </g>
    <g id="Grupo_486-41" data-name="Grupo 486" transform="translate(664.068 356.188)">
      <path id="Unión_10-41" data-name="Unión 10" d="M88.945,69a11,11,0,0,1-11-11V15.234a4,4,0,0,0-4-4H51.56a4,4,0,0,0-4,4V67.4H38.312V12.267a3.985,3.985,0,0,0-2.679-1.032H13.248a4,4,0,0,0-4,4V67.4H0V11A11,11,0,0,1,11,0H36.56a10.919,10.919,0,0,1,6.376,2.033A10.919,10.919,0,0,1,49.312,0h25.56a10.917,10.917,0,0,1,7.036,2.543A10.917,10.917,0,0,1,88.945,0H107.01V13.1h-16a4.005,4.005,0,0,0-4,4V53.188a4.005,4.005,0,0,0,4,4H131.15a4,4,0,0,0,4-4V41.723H113.615V30.49H144V58a11,11,0,0,1-11,11Z" transform="translate(-0.068 -0.188)" fill="#0f0e24"/>
      <ellipse id="Elipse_85-41" data-name="Elipse 85" cx="8" cy="9.5" rx="8" ry="9.5" transform="translate(129.932 -0.188)" fill="#0f0e24"/>
    </g>
    <g id="Grupo_486-42" data-name="Grupo 486" transform="translate(830.068 356.188)">
      <path id="Unión_10-42" data-name="Unión 10" d="M88.945,69a11,11,0,0,1-11-11V15.234a4,4,0,0,0-4-4H51.56a4,4,0,0,0-4,4V67.4H38.312V12.267a3.985,3.985,0,0,0-2.679-1.032H13.248a4,4,0,0,0-4,4V67.4H0V11A11,11,0,0,1,11,0H36.56a10.919,10.919,0,0,1,6.376,2.033A10.919,10.919,0,0,1,49.312,0h25.56a10.917,10.917,0,0,1,7.036,2.543A10.917,10.917,0,0,1,88.945,0H107.01V13.1h-16a4.005,4.005,0,0,0-4,4V53.188a4.005,4.005,0,0,0,4,4H131.15a4,4,0,0,0,4-4V41.723H113.615V30.49H144V58a11,11,0,0,1-11,11Z" transform="translate(-0.068 -0.188)" fill="#0f0e24"/>
      <ellipse id="Elipse_85-42" data-name="Elipse 85" cx="8" cy="9.5" rx="8" ry="9.5" transform="translate(129.932 -0.188)" fill="#0f0e24"/>
    </g>
    <g id="Grupo_486-43" data-name="Grupo 486" transform="translate(996.068 356.188)">
      <path id="Unión_10-43" data-name="Unión 10" d="M88.945,69a11,11,0,0,1-11-11V15.234a4,4,0,0,0-4-4H51.56a4,4,0,0,0-4,4V67.4H38.312V12.267a3.985,3.985,0,0,0-2.679-1.032H13.248a4,4,0,0,0-4,4V67.4H0V11A11,11,0,0,1,11,0H36.56a10.919,10.919,0,0,1,6.376,2.033A10.919,10.919,0,0,1,49.312,0h25.56a10.917,10.917,0,0,1,7.036,2.543A10.917,10.917,0,0,1,88.945,0H107.01V13.1h-16a4.005,4.005,0,0,0-4,4V53.188a4.005,4.005,0,0,0,4,4H131.15a4,4,0,0,0,4-4V41.723H113.615V30.49H144V58a11,11,0,0,1-11,11Z" transform="translate(-0.068 -0.188)" fill="#0f0e24"/>
      <ellipse id="Elipse_85-43" data-name="Elipse 85" cx="8" cy="9.5" rx="8" ry="9.5" transform="translate(129.932 -0.188)" fill="#0f0e24"/>
    </g>
    <g id="Grupo_486-44" data-name="Grupo 486" transform="translate(1162.068 356.188)">
      <path id="Unión_10-44" data-name="Unión 10" d="M88.945,69a11,11,0,0,1-11-11V15.234a4,4,0,0,0-4-4H51.56a4,4,0,0,0-4,4V67.4H38.312V12.267a3.985,3.985,0,0,0-2.679-1.032H13.248a4,4,0,0,0-4,4V67.4H0V11A11,11,0,0,1,11,0H36.56a10.919,10.919,0,0,1,6.376,2.033A10.919,10.919,0,0,1,49.312,0h25.56a10.917,10.917,0,0,1,7.036,2.543A10.917,10.917,0,0,1,88.945,0H107.01V13.1h-16a4.005,4.005,0,0,0-4,4V53.188a4.005,4.005,0,0,0,4,4H131.15a4,4,0,0,0,4-4V41.723H113.615V30.49H144V58a11,11,0,0,1-11,11Z" transform="translate(-0.068 -0.188)" fill="#0f0e24"/>
      <ellipse id="Elipse_85-44" data-name="Elipse 85" cx="8" cy="9.5" rx="8" ry="9.5" transform="translate(129.932 -0.188)" fill="#0f0e24"/>
    </g>
    <g id="Grupo_486-45" data-name="Grupo 486" transform="translate(1328.068 356.188)">
      <path id="Unión_10-45" data-name="Unión 10" d="M88.945,69a11,11,0,0,1-11-11V15.234a4,4,0,0,0-4-4H51.56a4,4,0,0,0-4,4V67.4H38.312V12.267a3.985,3.985,0,0,0-2.679-1.032H13.248a4,4,0,0,0-4,4V67.4H0V11A11,11,0,0,1,11,0H36.56a10.919,10.919,0,0,1,6.376,2.033A10.919,10.919,0,0,1,49.312,0h25.56a10.917,10.917,0,0,1,7.036,2.543A10.917,10.917,0,0,1,88.945,0H107.01V13.1h-16a4.005,4.005,0,0,0-4,4V53.188a4.005,4.005,0,0,0,4,4H131.15a4,4,0,0,0,4-4V41.723H113.615V30.49H144V58a11,11,0,0,1-11,11Z" transform="translate(-0.068 -0.188)" fill="#0f0e24"/>
      <ellipse id="Elipse_85-45" data-name="Elipse 85" cx="8" cy="9.5" rx="8" ry="9.5" transform="translate(129.932 -0.188)" fill="#0f0e24"/>
    </g>
    <g id="Grupo_486-46" data-name="Grupo 486" transform="translate(0.068 445.188)">
      <path id="Unión_10-46" data-name="Unión 10" d="M88.945,69a11,11,0,0,1-11-11V15.234a4,4,0,0,0-4-4H51.56a4,4,0,0,0-4,4V67.4H38.312V12.267a3.985,3.985,0,0,0-2.679-1.032H13.248a4,4,0,0,0-4,4V67.4H0V11A11,11,0,0,1,11,0H36.56a10.919,10.919,0,0,1,6.376,2.033A10.919,10.919,0,0,1,49.312,0h25.56a10.917,10.917,0,0,1,7.036,2.543A10.917,10.917,0,0,1,88.945,0H107.01V13.1h-16a4.005,4.005,0,0,0-4,4V53.188a4.005,4.005,0,0,0,4,4H131.15a4,4,0,0,0,4-4V41.723H113.615V30.49H144V58a11,11,0,0,1-11,11Z" transform="translate(-0.068 -0.188)" fill="#0f0e24"/>
      <ellipse id="Elipse_85-46" data-name="Elipse 85" cx="8" cy="9.5" rx="8" ry="9.5" transform="translate(129.932 -0.188)" fill="#0f0e24"/>
    </g>
    <g id="Grupo_486-47" data-name="Grupo 486" transform="translate(166.068 445.188)">
      <path id="Unión_10-47" data-name="Unión 10" d="M88.945,69a11,11,0,0,1-11-11V15.234a4,4,0,0,0-4-4H51.56a4,4,0,0,0-4,4V67.4H38.312V12.267a3.985,3.985,0,0,0-2.679-1.032H13.248a4,4,0,0,0-4,4V67.4H0V11A11,11,0,0,1,11,0H36.56a10.919,10.919,0,0,1,6.376,2.033A10.919,10.919,0,0,1,49.312,0h25.56a10.917,10.917,0,0,1,7.036,2.543A10.917,10.917,0,0,1,88.945,0H107.01V13.1h-16a4.005,4.005,0,0,0-4,4V53.188a4.005,4.005,0,0,0,4,4H131.15a4,4,0,0,0,4-4V41.723H113.615V30.49H144V58a11,11,0,0,1-11,11Z" transform="translate(-0.068 -0.188)" fill="#0f0e24"/>
      <ellipse id="Elipse_85-47" data-name="Elipse 85" cx="8" cy="9.5" rx="8" ry="9.5" transform="translate(129.932 -0.188)" fill="#0f0e24"/>
    </g>
    <g id="Grupo_486-48" data-name="Grupo 486" transform="translate(332.068 445.188)">
      <path id="Unión_10-48" data-name="Unión 10" d="M88.945,69a11,11,0,0,1-11-11V15.234a4,4,0,0,0-4-4H51.56a4,4,0,0,0-4,4V67.4H38.312V12.267a3.985,3.985,0,0,0-2.679-1.032H13.248a4,4,0,0,0-4,4V67.4H0V11A11,11,0,0,1,11,0H36.56a10.919,10.919,0,0,1,6.376,2.033A10.919,10.919,0,0,1,49.312,0h25.56a10.917,10.917,0,0,1,7.036,2.543A10.917,10.917,0,0,1,88.945,0H107.01V13.1h-16a4.005,4.005,0,0,0-4,4V53.188a4.005,4.005,0,0,0,4,4H131.15a4,4,0,0,0,4-4V41.723H113.615V30.49H144V58a11,11,0,0,1-11,11Z" transform="translate(-0.068 -0.188)" fill="#0f0e24"/>
      <ellipse id="Elipse_85-48" data-name="Elipse 85" cx="8" cy="9.5" rx="8" ry="9.5" transform="translate(129.932 -0.188)" fill="#0f0e24"/>
    </g>
    <g id="Grupo_486-49" data-name="Grupo 486" transform="translate(498.068 445.188)">
      <path id="Unión_10-49" data-name="Unión 10" d="M88.945,69a11,11,0,0,1-11-11V15.234a4,4,0,0,0-4-4H51.56a4,4,0,0,0-4,4V67.4H38.312V12.267a3.985,3.985,0,0,0-2.679-1.032H13.248a4,4,0,0,0-4,4V67.4H0V11A11,11,0,0,1,11,0H36.56a10.919,10.919,0,0,1,6.376,2.033A10.919,10.919,0,0,1,49.312,0h25.56a10.917,10.917,0,0,1,7.036,2.543A10.917,10.917,0,0,1,88.945,0H107.01V13.1h-16a4.005,4.005,0,0,0-4,4V53.188a4.005,4.005,0,0,0,4,4H131.15a4,4,0,0,0,4-4V41.723H113.615V30.49H144V58a11,11,0,0,1-11,11Z" transform="translate(-0.068 -0.188)" fill="#0f0e24"/>
      <ellipse id="Elipse_85-49" data-name="Elipse 85" cx="8" cy="9.5" rx="8" ry="9.5" transform="translate(129.932 -0.188)" fill="#0f0e24"/>
    </g>
    <g id="Grupo_486-50" data-name="Grupo 486" transform="translate(664.068 445.188)">
      <path id="Unión_10-50" data-name="Unión 10" d="M88.945,69a11,11,0,0,1-11-11V15.234a4,4,0,0,0-4-4H51.56a4,4,0,0,0-4,4V67.4H38.312V12.267a3.985,3.985,0,0,0-2.679-1.032H13.248a4,4,0,0,0-4,4V67.4H0V11A11,11,0,0,1,11,0H36.56a10.919,10.919,0,0,1,6.376,2.033A10.919,10.919,0,0,1,49.312,0h25.56a10.917,10.917,0,0,1,7.036,2.543A10.917,10.917,0,0,1,88.945,0H107.01V13.1h-16a4.005,4.005,0,0,0-4,4V53.188a4.005,4.005,0,0,0,4,4H131.15a4,4,0,0,0,4-4V41.723H113.615V30.49H144V58a11,11,0,0,1-11,11Z" transform="translate(-0.068 -0.188)" fill="#0f0e24"/>
      <ellipse id="Elipse_85-50" data-name="Elipse 85" cx="8" cy="9.5" rx="8" ry="9.5" transform="translate(129.932 -0.188)" fill="#0f0e24"/>
    </g>
    <g id="Grupo_486-51" data-name="Grupo 486" transform="translate(830.068 445.188)">
      <path id="Unión_10-51" data-name="Unión 10" d="M88.945,69a11,11,0,0,1-11-11V15.234a4,4,0,0,0-4-4H51.56a4,4,0,0,0-4,4V67.4H38.312V12.267a3.985,3.985,0,0,0-2.679-1.032H13.248a4,4,0,0,0-4,4V67.4H0V11A11,11,0,0,1,11,0H36.56a10.919,10.919,0,0,1,6.376,2.033A10.919,10.919,0,0,1,49.312,0h25.56a10.917,10.917,0,0,1,7.036,2.543A10.917,10.917,0,0,1,88.945,0H107.01V13.1h-16a4.005,4.005,0,0,0-4,4V53.188a4.005,4.005,0,0,0,4,4H131.15a4,4,0,0,0,4-4V41.723H113.615V30.49H144V58a11,11,0,0,1-11,11Z" transform="translate(-0.068 -0.188)" fill="#0f0e24"/>
      <ellipse id="Elipse_85-51" data-name="Elipse 85" cx="8" cy="9.5" rx="8" ry="9.5" transform="translate(129.932 -0.188)" fill="#0f0e24"/>
    </g>
    <g id="Grupo_486-52" data-name="Grupo 486" transform="translate(996.068 445.188)">
      <path id="Unión_10-52" data-name="Unión 10" d="M88.945,69a11,11,0,0,1-11-11V15.234a4,4,0,0,0-4-4H51.56a4,4,0,0,0-4,4V67.4H38.312V12.267a3.985,3.985,0,0,0-2.679-1.032H13.248a4,4,0,0,0-4,4V67.4H0V11A11,11,0,0,1,11,0H36.56a10.919,10.919,0,0,1,6.376,2.033A10.919,10.919,0,0,1,49.312,0h25.56a10.917,10.917,0,0,1,7.036,2.543A10.917,10.917,0,0,1,88.945,0H107.01V13.1h-16a4.005,4.005,0,0,0-4,4V53.188a4.005,4.005,0,0,0,4,4H131.15a4,4,0,0,0,4-4V41.723H113.615V30.49H144V58a11,11,0,0,1-11,11Z" transform="translate(-0.068 -0.188)" fill="#0f0e24"/>
      <ellipse id="Elipse_85-52" data-name="Elipse 85" cx="8" cy="9.5" rx="8" ry="9.5" transform="translate(129.932 -0.188)" fill="#0f0e24"/>
    </g>
    <g id="Grupo_486-53" data-name="Grupo 486" transform="translate(1162.068 445.188)">
      <path id="Unión_10-53" data-name="Unión 10" d="M88.945,69a11,11,0,0,1-11-11V15.234a4,4,0,0,0-4-4H51.56a4,4,0,0,0-4,4V67.4H38.312V12.267a3.985,3.985,0,0,0-2.679-1.032H13.248a4,4,0,0,0-4,4V67.4H0V11A11,11,0,0,1,11,0H36.56a10.919,10.919,0,0,1,6.376,2.033A10.919,10.919,0,0,1,49.312,0h25.56a10.917,10.917,0,0,1,7.036,2.543A10.917,10.917,0,0,1,88.945,0H107.01V13.1h-16a4.005,4.005,0,0,0-4,4V53.188a4.005,4.005,0,0,0,4,4H131.15a4,4,0,0,0,4-4V41.723H113.615V30.49H144V58a11,11,0,0,1-11,11Z" transform="translate(-0.068 -0.188)" fill="#0f0e24"/>
      <ellipse id="Elipse_85-53" data-name="Elipse 85" cx="8" cy="9.5" rx="8" ry="9.5" transform="translate(129.932 -0.188)" fill="#0f0e24"/>
    </g>
    <g id="Grupo_486-54" data-name="Grupo 486" transform="translate(1328.068 445.188)">
      <path id="Unión_10-54" data-name="Unión 10" d="M88.945,69a11,11,0,0,1-11-11V15.234a4,4,0,0,0-4-4H51.56a4,4,0,0,0-4,4V67.4H38.312V12.267a3.985,3.985,0,0,0-2.679-1.032H13.248a4,4,0,0,0-4,4V67.4H0V11A11,11,0,0,1,11,0H36.56a10.919,10.919,0,0,1,6.376,2.033A10.919,10.919,0,0,1,49.312,0h25.56a10.917,10.917,0,0,1,7.036,2.543A10.917,10.917,0,0,1,88.945,0H107.01V13.1h-16a4.005,4.005,0,0,0-4,4V53.188a4.005,4.005,0,0,0,4,4H131.15a4,4,0,0,0,4-4V41.723H113.615V30.49H144V58a11,11,0,0,1-11,11Z" transform="translate(-0.068 -0.188)" fill="#0f0e24"/>
      <ellipse id="Elipse_85-54" data-name="Elipse 85" cx="8" cy="9.5" rx="8" ry="9.5" transform="translate(129.932 -0.188)" fill="#0f0e24"/>
    </g>
    <g id="Grupo_486-55" data-name="Grupo 486" transform="translate(0.068 534.188)">
      <path id="Unión_10-55" data-name="Unión 10" d="M88.945,69a11,11,0,0,1-11-11V15.234a4,4,0,0,0-4-4H51.56a4,4,0,0,0-4,4V67.4H38.312V12.267a3.985,3.985,0,0,0-2.679-1.032H13.248a4,4,0,0,0-4,4V67.4H0V11A11,11,0,0,1,11,0H36.56a10.919,10.919,0,0,1,6.376,2.033A10.919,10.919,0,0,1,49.312,0h25.56a10.917,10.917,0,0,1,7.036,2.543A10.917,10.917,0,0,1,88.945,0H107.01V13.1h-16a4.005,4.005,0,0,0-4,4V53.188a4.005,4.005,0,0,0,4,4H131.15a4,4,0,0,0,4-4V41.723H113.615V30.49H144V58a11,11,0,0,1-11,11Z" transform="translate(-0.068 -0.188)" fill="#0f0e24"/>
      <ellipse id="Elipse_85-55" data-name="Elipse 85" cx="8" cy="9.5" rx="8" ry="9.5" transform="translate(129.932 -0.188)" fill="#0f0e24"/>
    </g>
    <g id="Grupo_486-56" data-name="Grupo 486" transform="translate(166.068 534.188)">
      <path id="Unión_10-56" data-name="Unión 10" d="M88.945,69a11,11,0,0,1-11-11V15.234a4,4,0,0,0-4-4H51.56a4,4,0,0,0-4,4V67.4H38.312V12.267a3.985,3.985,0,0,0-2.679-1.032H13.248a4,4,0,0,0-4,4V67.4H0V11A11,11,0,0,1,11,0H36.56a10.919,10.919,0,0,1,6.376,2.033A10.919,10.919,0,0,1,49.312,0h25.56a10.917,10.917,0,0,1,7.036,2.543A10.917,10.917,0,0,1,88.945,0H107.01V13.1h-16a4.005,4.005,0,0,0-4,4V53.188a4.005,4.005,0,0,0,4,4H131.15a4,4,0,0,0,4-4V41.723H113.615V30.49H144V58a11,11,0,0,1-11,11Z" transform="translate(-0.068 -0.188)" fill="#0f0e24"/>
      <ellipse id="Elipse_85-56" data-name="Elipse 85" cx="8" cy="9.5" rx="8" ry="9.5" transform="translate(129.932 -0.188)" fill="#0f0e24"/>
    </g>
    <g id="Grupo_486-57" data-name="Grupo 486" transform="translate(332.068 534.188)">
      <path id="Unión_10-57" data-name="Unión 10" d="M88.945,69a11,11,0,0,1-11-11V15.234a4,4,0,0,0-4-4H51.56a4,4,0,0,0-4,4V67.4H38.312V12.267a3.985,3.985,0,0,0-2.679-1.032H13.248a4,4,0,0,0-4,4V67.4H0V11A11,11,0,0,1,11,0H36.56a10.919,10.919,0,0,1,6.376,2.033A10.919,10.919,0,0,1,49.312,0h25.56a10.917,10.917,0,0,1,7.036,2.543A10.917,10.917,0,0,1,88.945,0H107.01V13.1h-16a4.005,4.005,0,0,0-4,4V53.188a4.005,4.005,0,0,0,4,4H131.15a4,4,0,0,0,4-4V41.723H113.615V30.49H144V58a11,11,0,0,1-11,11Z" transform="translate(-0.068 -0.188)" fill="#0f0e24"/>
      <ellipse id="Elipse_85-57" data-name="Elipse 85" cx="8" cy="9.5" rx="8" ry="9.5" transform="translate(129.932 -0.188)" fill="#0f0e24"/>
    </g>
    <g id="Grupo_486-58" data-name="Grupo 486" transform="translate(498.068 534.188)">
      <path id="Unión_10-58" data-name="Unión 10" d="M88.945,69a11,11,0,0,1-11-11V15.234a4,4,0,0,0-4-4H51.56a4,4,0,0,0-4,4V67.4H38.312V12.267a3.985,3.985,0,0,0-2.679-1.032H13.248a4,4,0,0,0-4,4V67.4H0V11A11,11,0,0,1,11,0H36.56a10.919,10.919,0,0,1,6.376,2.033A10.919,10.919,0,0,1,49.312,0h25.56a10.917,10.917,0,0,1,7.036,2.543A10.917,10.917,0,0,1,88.945,0H107.01V13.1h-16a4.005,4.005,0,0,0-4,4V53.188a4.005,4.005,0,0,0,4,4H131.15a4,4,0,0,0,4-4V41.723H113.615V30.49H144V58a11,11,0,0,1-11,11Z" transform="translate(-0.068 -0.188)" fill="#0f0e24"/>
      <ellipse id="Elipse_85-58" data-name="Elipse 85" cx="8" cy="9.5" rx="8" ry="9.5" transform="translate(129.932 -0.188)" fill="#0f0e24"/>
    </g>
    <g id="Grupo_486-59" data-name="Grupo 486" transform="translate(664.068 534.188)">
      <path id="Unión_10-59" data-name="Unión 10" d="M88.945,69a11,11,0,0,1-11-11V15.234a4,4,0,0,0-4-4H51.56a4,4,0,0,0-4,4V67.4H38.312V12.267a3.985,3.985,0,0,0-2.679-1.032H13.248a4,4,0,0,0-4,4V67.4H0V11A11,11,0,0,1,11,0H36.56a10.919,10.919,0,0,1,6.376,2.033A10.919,10.919,0,0,1,49.312,0h25.56a10.917,10.917,0,0,1,7.036,2.543A10.917,10.917,0,0,1,88.945,0H107.01V13.1h-16a4.005,4.005,0,0,0-4,4V53.188a4.005,4.005,0,0,0,4,4H131.15a4,4,0,0,0,4-4V41.723H113.615V30.49H144V58a11,11,0,0,1-11,11Z" transform="translate(-0.068 -0.188)" fill="#0f0e24"/>
      <ellipse id="Elipse_85-59" data-name="Elipse 85" cx="8" cy="9.5" rx="8" ry="9.5" transform="translate(129.932 -0.188)" fill="#0f0e24"/>
    </g>
    <g id="Grupo_486-60" data-name="Grupo 486" transform="translate(830.068 534.188)">
      <path id="Unión_10-60" data-name="Unión 10" d="M88.945,69a11,11,0,0,1-11-11V15.234a4,4,0,0,0-4-4H51.56a4,4,0,0,0-4,4V67.4H38.312V12.267a3.985,3.985,0,0,0-2.679-1.032H13.248a4,4,0,0,0-4,4V67.4H0V11A11,11,0,0,1,11,0H36.56a10.919,10.919,0,0,1,6.376,2.033A10.919,10.919,0,0,1,49.312,0h25.56a10.917,10.917,0,0,1,7.036,2.543A10.917,10.917,0,0,1,88.945,0H107.01V13.1h-16a4.005,4.005,0,0,0-4,4V53.188a4.005,4.005,0,0,0,4,4H131.15a4,4,0,0,0,4-4V41.723H113.615V30.49H144V58a11,11,0,0,1-11,11Z" transform="translate(-0.068 -0.188)" fill="#0f0e24"/>
      <ellipse id="Elipse_85-60" data-name="Elipse 85" cx="8" cy="9.5" rx="8" ry="9.5" transform="translate(129.932 -0.188)" fill="#0f0e24"/>
    </g>
    <g id="Grupo_486-61" data-name="Grupo 486" transform="translate(996.068 534.188)">
      <path id="Unión_10-61" data-name="Unión 10" d="M88.945,69a11,11,0,0,1-11-11V15.234a4,4,0,0,0-4-4H51.56a4,4,0,0,0-4,4V67.4H38.312V12.267a3.985,3.985,0,0,0-2.679-1.032H13.248a4,4,0,0,0-4,4V67.4H0V11A11,11,0,0,1,11,0H36.56a10.919,10.919,0,0,1,6.376,2.033A10.919,10.919,0,0,1,49.312,0h25.56a10.917,10.917,0,0,1,7.036,2.543A10.917,10.917,0,0,1,88.945,0H107.01V13.1h-16a4.005,4.005,0,0,0-4,4V53.188a4.005,4.005,0,0,0,4,4H131.15a4,4,0,0,0,4-4V41.723H113.615V30.49H144V58a11,11,0,0,1-11,11Z" transform="translate(-0.068 -0.188)" fill="#0f0e24"/>
      <ellipse id="Elipse_85-61" data-name="Elipse 85" cx="8" cy="9.5" rx="8" ry="9.5" transform="translate(129.932 -0.188)" fill="#0f0e24"/>
    </g>
    <g id="Grupo_486-62" data-name="Grupo 486" transform="translate(1162.068 534.188)">
      <path id="Unión_10-62" data-name="Unión 10" d="M88.945,69a11,11,0,0,1-11-11V15.234a4,4,0,0,0-4-4H51.56a4,4,0,0,0-4,4V67.4H38.312V12.267a3.985,3.985,0,0,0-2.679-1.032H13.248a4,4,0,0,0-4,4V67.4H0V11A11,11,0,0,1,11,0H36.56a10.919,10.919,0,0,1,6.376,2.033A10.919,10.919,0,0,1,49.312,0h25.56a10.917,10.917,0,0,1,7.036,2.543A10.917,10.917,0,0,1,88.945,0H107.01V13.1h-16a4.005,4.005,0,0,0-4,4V53.188a4.005,4.005,0,0,0,4,4H131.15a4,4,0,0,0,4-4V41.723H113.615V30.49H144V58a11,11,0,0,1-11,11Z" transform="translate(-0.068 -0.188)" fill="#0f0e24"/>
      <ellipse id="Elipse_85-62" data-name="Elipse 85" cx="8" cy="9.5" rx="8" ry="9.5" transform="translate(129.932 -0.188)" fill="#0f0e24"/>
    </g>
    <g id="Grupo_486-63" data-name="Grupo 486" transform="translate(1328.068 534.188)">
      <path id="Unión_10-63" data-name="Unión 10" d="M88.945,69a11,11,0,0,1-11-11V15.234a4,4,0,0,0-4-4H51.56a4,4,0,0,0-4,4V67.4H38.312V12.267a3.985,3.985,0,0,0-2.679-1.032H13.248a4,4,0,0,0-4,4V67.4H0V11A11,11,0,0,1,11,0H36.56a10.919,10.919,0,0,1,6.376,2.033A10.919,10.919,0,0,1,49.312,0h25.56a10.917,10.917,0,0,1,7.036,2.543A10.917,10.917,0,0,1,88.945,0H107.01V13.1h-16a4.005,4.005,0,0,0-4,4V53.188a4.005,4.005,0,0,0,4,4H131.15a4,4,0,0,0,4-4V41.723H113.615V30.49H144V58a11,11,0,0,1-11,11Z" transform="translate(-0.068 -0.188)" fill="#0f0e24"/>
      <ellipse id="Elipse_85-63" data-name="Elipse 85" cx="8" cy="9.5" rx="8" ry="9.5" transform="translate(129.932 -0.188)" fill="#0f0e24"/>
    </g>
    <g id="Grupo_486-64" data-name="Grupo 486" transform="translate(0.068 623.188)">
      <path id="Unión_10-64" data-name="Unión 10" d="M88.945,69a11,11,0,0,1-11-11V15.234a4,4,0,0,0-4-4H51.56a4,4,0,0,0-4,4V67.4H38.312V12.267a3.985,3.985,0,0,0-2.679-1.032H13.248a4,4,0,0,0-4,4V67.4H0V11A11,11,0,0,1,11,0H36.56a10.919,10.919,0,0,1,6.376,2.033A10.919,10.919,0,0,1,49.312,0h25.56a10.917,10.917,0,0,1,7.036,2.543A10.917,10.917,0,0,1,88.945,0H107.01V13.1h-16a4.005,4.005,0,0,0-4,4V53.188a4.005,4.005,0,0,0,4,4H131.15a4,4,0,0,0,4-4V41.723H113.615V30.49H144V58a11,11,0,0,1-11,11Z" transform="translate(-0.068 -0.188)" fill="#0f0e24"/>
      <ellipse id="Elipse_85-64" data-name="Elipse 85" cx="8" cy="9.5" rx="8" ry="9.5" transform="translate(129.932 -0.188)" fill="#0f0e24"/>
    </g>
    <g id="Grupo_486-65" data-name="Grupo 486" transform="translate(166.068 623.188)">
      <path id="Unión_10-65" data-name="Unión 10" d="M88.945,69a11,11,0,0,1-11-11V15.234a4,4,0,0,0-4-4H51.56a4,4,0,0,0-4,4V67.4H38.312V12.267a3.985,3.985,0,0,0-2.679-1.032H13.248a4,4,0,0,0-4,4V67.4H0V11A11,11,0,0,1,11,0H36.56a10.919,10.919,0,0,1,6.376,2.033A10.919,10.919,0,0,1,49.312,0h25.56a10.917,10.917,0,0,1,7.036,2.543A10.917,10.917,0,0,1,88.945,0H107.01V13.1h-16a4.005,4.005,0,0,0-4,4V53.188a4.005,4.005,0,0,0,4,4H131.15a4,4,0,0,0,4-4V41.723H113.615V30.49H144V58a11,11,0,0,1-11,11Z" transform="translate(-0.068 -0.188)" fill="#0f0e24"/>
      <ellipse id="Elipse_85-65" data-name="Elipse 85" cx="8" cy="9.5" rx="8" ry="9.5" transform="translate(129.932 -0.188)" fill="#0f0e24"/>
    </g>
    <g id="Grupo_486-66" data-name="Grupo 486" transform="translate(332.068 623.188)">
      <path id="Unión_10-66" data-name="Unión 10" d="M88.945,69a11,11,0,0,1-11-11V15.234a4,4,0,0,0-4-4H51.56a4,4,0,0,0-4,4V67.4H38.312V12.267a3.985,3.985,0,0,0-2.679-1.032H13.248a4,4,0,0,0-4,4V67.4H0V11A11,11,0,0,1,11,0H36.56a10.919,10.919,0,0,1,6.376,2.033A10.919,10.919,0,0,1,49.312,0h25.56a10.917,10.917,0,0,1,7.036,2.543A10.917,10.917,0,0,1,88.945,0H107.01V13.1h-16a4.005,4.005,0,0,0-4,4V53.188a4.005,4.005,0,0,0,4,4H131.15a4,4,0,0,0,4-4V41.723H113.615V30.49H144V58a11,11,0,0,1-11,11Z" transform="translate(-0.068 -0.188)" fill="#0f0e24"/>
      <ellipse id="Elipse_85-66" data-name="Elipse 85" cx="8" cy="9.5" rx="8" ry="9.5" transform="translate(129.932 -0.188)" fill="#0f0e24"/>
    </g>
    <g id="Grupo_486-67" data-name="Grupo 486" transform="translate(498.068 623.188)">
      <path id="Unión_10-67" data-name="Unión 10" d="M88.945,69a11,11,0,0,1-11-11V15.234a4,4,0,0,0-4-4H51.56a4,4,0,0,0-4,4V67.4H38.312V12.267a3.985,3.985,0,0,0-2.679-1.032H13.248a4,4,0,0,0-4,4V67.4H0V11A11,11,0,0,1,11,0H36.56a10.919,10.919,0,0,1,6.376,2.033A10.919,10.919,0,0,1,49.312,0h25.56a10.917,10.917,0,0,1,7.036,2.543A10.917,10.917,0,0,1,88.945,0H107.01V13.1h-16a4.005,4.005,0,0,0-4,4V53.188a4.005,4.005,0,0,0,4,4H131.15a4,4,0,0,0,4-4V41.723H113.615V30.49H144V58a11,11,0,0,1-11,11Z" transform="translate(-0.068 -0.188)" fill="#0f0e24"/>
      <ellipse id="Elipse_85-67" data-name="Elipse 85" cx="8" cy="9.5" rx="8" ry="9.5" transform="translate(129.932 -0.188)" fill="#0f0e24"/>
    </g>
    <g id="Grupo_486-68" data-name="Grupo 486" transform="translate(664.068 623.188)">
      <path id="Unión_10-68" data-name="Unión 10" d="M88.945,69a11,11,0,0,1-11-11V15.234a4,4,0,0,0-4-4H51.56a4,4,0,0,0-4,4V67.4H38.312V12.267a3.985,3.985,0,0,0-2.679-1.032H13.248a4,4,0,0,0-4,4V67.4H0V11A11,11,0,0,1,11,0H36.56a10.919,10.919,0,0,1,6.376,2.033A10.919,10.919,0,0,1,49.312,0h25.56a10.917,10.917,0,0,1,7.036,2.543A10.917,10.917,0,0,1,88.945,0H107.01V13.1h-16a4.005,4.005,0,0,0-4,4V53.188a4.005,4.005,0,0,0,4,4H131.15a4,4,0,0,0,4-4V41.723H113.615V30.49H144V58a11,11,0,0,1-11,11Z" transform="translate(-0.068 -0.188)" fill="#0f0e24"/>
      <ellipse id="Elipse_85-68" data-name="Elipse 85" cx="8" cy="9.5" rx="8" ry="9.5" transform="translate(129.932 -0.188)" fill="#0f0e24"/>
    </g>
    <g id="Grupo_486-69" data-name="Grupo 486" transform="translate(830.068 623.188)">
      <path id="Unión_10-69" data-name="Unión 10" d="M88.945,69a11,11,0,0,1-11-11V15.234a4,4,0,0,0-4-4H51.56a4,4,0,0,0-4,4V67.4H38.312V12.267a3.985,3.985,0,0,0-2.679-1.032H13.248a4,4,0,0,0-4,4V67.4H0V11A11,11,0,0,1,11,0H36.56a10.919,10.919,0,0,1,6.376,2.033A10.919,10.919,0,0,1,49.312,0h25.56a10.917,10.917,0,0,1,7.036,2.543A10.917,10.917,0,0,1,88.945,0H107.01V13.1h-16a4.005,4.005,0,0,0-4,4V53.188a4.005,4.005,0,0,0,4,4H131.15a4,4,0,0,0,4-4V41.723H113.615V30.49H144V58a11,11,0,0,1-11,11Z" transform="translate(-0.068 -0.188)" fill="#0f0e24"/>
      <ellipse id="Elipse_85-69" data-name="Elipse 85" cx="8" cy="9.5" rx="8" ry="9.5" transform="translate(129.932 -0.188)" fill="#0f0e24"/>
    </g>
    <g id="Grupo_486-70" data-name="Grupo 486" transform="translate(996.068 623.188)">
      <path id="Unión_10-70" data-name="Unión 10" d="M88.945,69a11,11,0,0,1-11-11V15.234a4,4,0,0,0-4-4H51.56a4,4,0,0,0-4,4V67.4H38.312V12.267a3.985,3.985,0,0,0-2.679-1.032H13.248a4,4,0,0,0-4,4V67.4H0V11A11,11,0,0,1,11,0H36.56a10.919,10.919,0,0,1,6.376,2.033A10.919,10.919,0,0,1,49.312,0h25.56a10.917,10.917,0,0,1,7.036,2.543A10.917,10.917,0,0,1,88.945,0H107.01V13.1h-16a4.005,4.005,0,0,0-4,4V53.188a4.005,4.005,0,0,0,4,4H131.15a4,4,0,0,0,4-4V41.723H113.615V30.49H144V58a11,11,0,0,1-11,11Z" transform="translate(-0.068 -0.188)" fill="#0f0e24"/>
      <ellipse id="Elipse_85-70" data-name="Elipse 85" cx="8" cy="9.5" rx="8" ry="9.5" transform="translate(129.932 -0.188)" fill="#0f0e24"/>
    </g>
    <g id="Grupo_486-71" data-name="Grupo 486" transform="translate(1162.068 623.188)">
      <path id="Unión_10-71" data-name="Unión 10" d="M88.945,69a11,11,0,0,1-11-11V15.234a4,4,0,0,0-4-4H51.56a4,4,0,0,0-4,4V67.4H38.312V12.267a3.985,3.985,0,0,0-2.679-1.032H13.248a4,4,0,0,0-4,4V67.4H0V11A11,11,0,0,1,11,0H36.56a10.919,10.919,0,0,1,6.376,2.033A10.919,10.919,0,0,1,49.312,0h25.56a10.917,10.917,0,0,1,7.036,2.543A10.917,10.917,0,0,1,88.945,0H107.01V13.1h-16a4.005,4.005,0,0,0-4,4V53.188a4.005,4.005,0,0,0,4,4H131.15a4,4,0,0,0,4-4V41.723H113.615V30.49H144V58a11,11,0,0,1-11,11Z" transform="translate(-0.068 -0.188)" fill="#0f0e24"/>
      <ellipse id="Elipse_85-71" data-name="Elipse 85" cx="8" cy="9.5" rx="8" ry="9.5" transform="translate(129.932 -0.188)" fill="#0f0e24"/>
    </g>
    <g id="Grupo_486-72" data-name="Grupo 486" transform="translate(1328.068 623.188)">
      <path id="Unión_10-72" data-name="Unión 10" d="M88.945,69a11,11,0,0,1-11-11V15.234a4,4,0,0,0-4-4H51.56a4,4,0,0,0-4,4V67.4H38.312V12.267a3.985,3.985,0,0,0-2.679-1.032H13.248a4,4,0,0,0-4,4V67.4H0V11A11,11,0,0,1,11,0H36.56a10.919,10.919,0,0,1,6.376,2.033A10.919,10.919,0,0,1,49.312,0h25.56a10.917,10.917,0,0,1,7.036,2.543A10.917,10.917,0,0,1,88.945,0H107.01V13.1h-16a4.005,4.005,0,0,0-4,4V53.188a4.005,4.005,0,0,0,4,4H131.15a4,4,0,0,0,4-4V41.723H113.615V30.49H144V58a11,11,0,0,1-11,11Z" transform="translate(-0.068 -0.188)" fill="#0f0e24"/>
      <ellipse id="Elipse_85-72" data-name="Elipse 85" cx="8" cy="9.5" rx="8" ry="9.5" transform="translate(129.932 -0.188)" fill="#0f0e24"/>
    </g>
    <g id="Grupo_486-73" data-name="Grupo 486" transform="translate(0.068 712.188)">
      <path id="Unión_10-73" data-name="Unión 10" d="M88.945,69a11,11,0,0,1-11-11V15.234a4,4,0,0,0-4-4H51.56a4,4,0,0,0-4,4V67.4H38.312V12.267a3.985,3.985,0,0,0-2.679-1.032H13.248a4,4,0,0,0-4,4V67.4H0V11A11,11,0,0,1,11,0H36.56a10.919,10.919,0,0,1,6.376,2.033A10.919,10.919,0,0,1,49.312,0h25.56a10.917,10.917,0,0,1,7.036,2.543A10.917,10.917,0,0,1,88.945,0H107.01V13.1h-16a4.005,4.005,0,0,0-4,4V53.188a4.005,4.005,0,0,0,4,4H131.15a4,4,0,0,0,4-4V41.723H113.615V30.49H144V58a11,11,0,0,1-11,11Z" transform="translate(-0.068 -0.188)" fill="#0f0e24"/>
      <ellipse id="Elipse_85-73" data-name="Elipse 85" cx="8" cy="9.5" rx="8" ry="9.5" transform="translate(129.932 -0.188)" fill="#0f0e24"/>
    </g>
    <g id="Grupo_486-74" data-name="Grupo 486" transform="translate(166.068 712.188)">
      <path id="Unión_10-74" data-name="Unión 10" d="M88.945,69a11,11,0,0,1-11-11V15.234a4,4,0,0,0-4-4H51.56a4,4,0,0,0-4,4V67.4H38.312V12.267a3.985,3.985,0,0,0-2.679-1.032H13.248a4,4,0,0,0-4,4V67.4H0V11A11,11,0,0,1,11,0H36.56a10.919,10.919,0,0,1,6.376,2.033A10.919,10.919,0,0,1,49.312,0h25.56a10.917,10.917,0,0,1,7.036,2.543A10.917,10.917,0,0,1,88.945,0H107.01V13.1h-16a4.005,4.005,0,0,0-4,4V53.188a4.005,4.005,0,0,0,4,4H131.15a4,4,0,0,0,4-4V41.723H113.615V30.49H144V58a11,11,0,0,1-11,11Z" transform="translate(-0.068 -0.188)" fill="#0f0e24"/>
      <ellipse id="Elipse_85-74" data-name="Elipse 85" cx="8" cy="9.5" rx="8" ry="9.5" transform="translate(129.932 -0.188)" fill="#0f0e24"/>
    </g>
    <g id="Grupo_486-75" data-name="Grupo 486" transform="translate(332.068 712.188)">
      <path id="Unión_10-75" data-name="Unión 10" d="M88.945,69a11,11,0,0,1-11-11V15.234a4,4,0,0,0-4-4H51.56a4,4,0,0,0-4,4V67.4H38.312V12.267a3.985,3.985,0,0,0-2.679-1.032H13.248a4,4,0,0,0-4,4V67.4H0V11A11,11,0,0,1,11,0H36.56a10.919,10.919,0,0,1,6.376,2.033A10.919,10.919,0,0,1,49.312,0h25.56a10.917,10.917,0,0,1,7.036,2.543A10.917,10.917,0,0,1,88.945,0H107.01V13.1h-16a4.005,4.005,0,0,0-4,4V53.188a4.005,4.005,0,0,0,4,4H131.15a4,4,0,0,0,4-4V41.723H113.615V30.49H144V58a11,11,0,0,1-11,11Z" transform="translate(-0.068 -0.188)" fill="#0f0e24"/>
      <ellipse id="Elipse_85-75" data-name="Elipse 85" cx="8" cy="9.5" rx="8" ry="9.5" transform="translate(129.932 -0.188)" fill="#0f0e24"/>
    </g>
    <g id="Grupo_486-76" data-name="Grupo 486" transform="translate(498.068 712.188)">
      <path id="Unión_10-76" data-name="Unión 10" d="M88.945,69a11,11,0,0,1-11-11V15.234a4,4,0,0,0-4-4H51.56a4,4,0,0,0-4,4V67.4H38.312V12.267a3.985,3.985,0,0,0-2.679-1.032H13.248a4,4,0,0,0-4,4V67.4H0V11A11,11,0,0,1,11,0H36.56a10.919,10.919,0,0,1,6.376,2.033A10.919,10.919,0,0,1,49.312,0h25.56a10.917,10.917,0,0,1,7.036,2.543A10.917,10.917,0,0,1,88.945,0H107.01V13.1h-16a4.005,4.005,0,0,0-4,4V53.188a4.005,4.005,0,0,0,4,4H131.15a4,4,0,0,0,4-4V41.723H113.615V30.49H144V58a11,11,0,0,1-11,11Z" transform="translate(-0.068 -0.188)" fill="#0f0e24"/>
      <ellipse id="Elipse_85-76" data-name="Elipse 85" cx="8" cy="9.5" rx="8" ry="9.5" transform="translate(129.932 -0.188)" fill="#0f0e24"/>
    </g>
    <g id="Grupo_486-77" data-name="Grupo 486" transform="translate(664.068 712.188)">
      <path id="Unión_10-77" data-name="Unión 10" d="M88.945,69a11,11,0,0,1-11-11V15.234a4,4,0,0,0-4-4H51.56a4,4,0,0,0-4,4V67.4H38.312V12.267a3.985,3.985,0,0,0-2.679-1.032H13.248a4,4,0,0,0-4,4V67.4H0V11A11,11,0,0,1,11,0H36.56a10.919,10.919,0,0,1,6.376,2.033A10.919,10.919,0,0,1,49.312,0h25.56a10.917,10.917,0,0,1,7.036,2.543A10.917,10.917,0,0,1,88.945,0H107.01V13.1h-16a4.005,4.005,0,0,0-4,4V53.188a4.005,4.005,0,0,0,4,4H131.15a4,4,0,0,0,4-4V41.723H113.615V30.49H144V58a11,11,0,0,1-11,11Z" transform="translate(-0.068 -0.188)" fill="#0f0e24"/>
      <ellipse id="Elipse_85-77" data-name="Elipse 85" cx="8" cy="9.5" rx="8" ry="9.5" transform="translate(129.932 -0.188)" fill="#0f0e24"/>
    </g>
    <g id="Grupo_486-78" data-name="Grupo 486" transform="translate(830.068 712.188)">
      <path id="Unión_10-78" data-name="Unión 10" d="M88.945,69a11,11,0,0,1-11-11V15.234a4,4,0,0,0-4-4H51.56a4,4,0,0,0-4,4V67.4H38.312V12.267a3.985,3.985,0,0,0-2.679-1.032H13.248a4,4,0,0,0-4,4V67.4H0V11A11,11,0,0,1,11,0H36.56a10.919,10.919,0,0,1,6.376,2.033A10.919,10.919,0,0,1,49.312,0h25.56a10.917,10.917,0,0,1,7.036,2.543A10.917,10.917,0,0,1,88.945,0H107.01V13.1h-16a4.005,4.005,0,0,0-4,4V53.188a4.005,4.005,0,0,0,4,4H131.15a4,4,0,0,0,4-4V41.723H113.615V30.49H144V58a11,11,0,0,1-11,11Z" transform="translate(-0.068 -0.188)" fill="#0f0e24"/>
      <ellipse id="Elipse_85-78" data-name="Elipse 85" cx="8" cy="9.5" rx="8" ry="9.5" transform="translate(129.932 -0.188)" fill="#0f0e24"/>
    </g>
    <g id="Grupo_486-79" data-name="Grupo 486" transform="translate(996.068 712.188)">
      <path id="Unión_10-79" data-name="Unión 10" d="M88.945,69a11,11,0,0,1-11-11V15.234a4,4,0,0,0-4-4H51.56a4,4,0,0,0-4,4V67.4H38.312V12.267a3.985,3.985,0,0,0-2.679-1.032H13.248a4,4,0,0,0-4,4V67.4H0V11A11,11,0,0,1,11,0H36.56a10.919,10.919,0,0,1,6.376,2.033A10.919,10.919,0,0,1,49.312,0h25.56a10.917,10.917,0,0,1,7.036,2.543A10.917,10.917,0,0,1,88.945,0H107.01V13.1h-16a4.005,4.005,0,0,0-4,4V53.188a4.005,4.005,0,0,0,4,4H131.15a4,4,0,0,0,4-4V41.723H113.615V30.49H144V58a11,11,0,0,1-11,11Z" transform="translate(-0.068 -0.188)" fill="#0f0e24"/>
      <ellipse id="Elipse_85-79" data-name="Elipse 85" cx="8" cy="9.5" rx="8" ry="9.5" transform="translate(129.932 -0.188)" fill="#0f0e24"/>
    </g>
    <g id="Grupo_486-80" data-name="Grupo 486" transform="translate(1162.068 712.188)">
      <path id="Unión_10-80" data-name="Unión 10" d="M88.945,69a11,11,0,0,1-11-11V15.234a4,4,0,0,0-4-4H51.56a4,4,0,0,0-4,4V67.4H38.312V12.267a3.985,3.985,0,0,0-2.679-1.032H13.248a4,4,0,0,0-4,4V67.4H0V11A11,11,0,0,1,11,0H36.56a10.919,10.919,0,0,1,6.376,2.033A10.919,10.919,0,0,1,49.312,0h25.56a10.917,10.917,0,0,1,7.036,2.543A10.917,10.917,0,0,1,88.945,0H107.01V13.1h-16a4.005,4.005,0,0,0-4,4V53.188a4.005,4.005,0,0,0,4,4H131.15a4,4,0,0,0,4-4V41.723H113.615V30.49H144V58a11,11,0,0,1-11,11Z" transform="translate(-0.068 -0.188)" fill="#0f0e24"/>
      <ellipse id="Elipse_85-80" data-name="Elipse 85" cx="8" cy="9.5" rx="8" ry="9.5" transform="translate(129.932 -0.188)" fill="#0f0e24"/>
    </g>
    <g id="Grupo_486-81" data-name="Grupo 486" transform="translate(1328.068 712.188)">
      <path id="Unión_10-81" data-name="Unión 10" d="M88.945,69a11,11,0,0,1-11-11V15.234a4,4,0,0,0-4-4H51.56a4,4,0,0,0-4,4V67.4H38.312V12.267a3.985,3.985,0,0,0-2.679-1.032H13.248a4,4,0,0,0-4,4V67.4H0V11A11,11,0,0,1,11,0H36.56a10.919,10.919,0,0,1,6.376,2.033A10.919,10.919,0,0,1,49.312,0h25.56a10.917,10.917,0,0,1,7.036,2.543A10.917,10.917,0,0,1,88.945,0H107.01V13.1h-16a4.005,4.005,0,0,0-4,4V53.188a4.005,4.005,0,0,0,4,4H131.15a4,4,0,0,0,4-4V41.723H113.615V30.49H144V58a11,11,0,0,1-11,11Z" transform="translate(-0.068 -0.188)" fill="#0f0e24"/>
      <ellipse id="Elipse_85-81" data-name="Elipse 85" cx="8" cy="9.5" rx="8" ry="9.5" transform="translate(129.932 -0.188)" fill="#0f0e24"/>
    </g>
    <g id="Grupo_486-82" data-name="Grupo 486" transform="translate(0.068 801.188)">
      <path id="Unión_10-82" data-name="Unión 10" d="M88.945,69a11,11,0,0,1-11-11V15.234a4,4,0,0,0-4-4H51.56a4,4,0,0,0-4,4V67.4H38.312V12.267a3.985,3.985,0,0,0-2.679-1.032H13.248a4,4,0,0,0-4,4V67.4H0V11A11,11,0,0,1,11,0H36.56a10.919,10.919,0,0,1,6.376,2.033A10.919,10.919,0,0,1,49.312,0h25.56a10.917,10.917,0,0,1,7.036,2.543A10.917,10.917,0,0,1,88.945,0H107.01V13.1h-16a4.005,4.005,0,0,0-4,4V53.188a4.005,4.005,0,0,0,4,4H131.15a4,4,0,0,0,4-4V41.723H113.615V30.49H144V58a11,11,0,0,1-11,11Z" transform="translate(-0.068 -0.188)" fill="#0f0e24"/>
      <ellipse id="Elipse_85-82" data-name="Elipse 85" cx="8" cy="9.5" rx="8" ry="9.5" transform="translate(129.932 -0.188)" fill="#0f0e24"/>
    </g>
    <g id="Grupo_486-83" data-name="Grupo 486" transform="translate(166.068 801.188)">
      <path id="Unión_10-83" data-name="Unión 10" d="M88.945,69a11,11,0,0,1-11-11V15.234a4,4,0,0,0-4-4H51.56a4,4,0,0,0-4,4V67.4H38.312V12.267a3.985,3.985,0,0,0-2.679-1.032H13.248a4,4,0,0,0-4,4V67.4H0V11A11,11,0,0,1,11,0H36.56a10.919,10.919,0,0,1,6.376,2.033A10.919,10.919,0,0,1,49.312,0h25.56a10.917,10.917,0,0,1,7.036,2.543A10.917,10.917,0,0,1,88.945,0H107.01V13.1h-16a4.005,4.005,0,0,0-4,4V53.188a4.005,4.005,0,0,0,4,4H131.15a4,4,0,0,0,4-4V41.723H113.615V30.49H144V58a11,11,0,0,1-11,11Z" transform="translate(-0.068 -0.188)" fill="#0f0e24"/>
      <ellipse id="Elipse_85-83" data-name="Elipse 85" cx="8" cy="9.5" rx="8" ry="9.5" transform="translate(129.932 -0.188)" fill="#0f0e24"/>
    </g>
    <g id="Grupo_486-84" data-name="Grupo 486" transform="translate(332.068 801.188)">
      <path id="Unión_10-84" data-name="Unión 10" d="M88.945,69a11,11,0,0,1-11-11V15.234a4,4,0,0,0-4-4H51.56a4,4,0,0,0-4,4V67.4H38.312V12.267a3.985,3.985,0,0,0-2.679-1.032H13.248a4,4,0,0,0-4,4V67.4H0V11A11,11,0,0,1,11,0H36.56a10.919,10.919,0,0,1,6.376,2.033A10.919,10.919,0,0,1,49.312,0h25.56a10.917,10.917,0,0,1,7.036,2.543A10.917,10.917,0,0,1,88.945,0H107.01V13.1h-16a4.005,4.005,0,0,0-4,4V53.188a4.005,4.005,0,0,0,4,4H131.15a4,4,0,0,0,4-4V41.723H113.615V30.49H144V58a11,11,0,0,1-11,11Z" transform="translate(-0.068 -0.188)" fill="#0f0e24"/>
      <ellipse id="Elipse_85-84" data-name="Elipse 85" cx="8" cy="9.5" rx="8" ry="9.5" transform="translate(129.932 -0.188)" fill="#0f0e24"/>
    </g>
    <g id="Grupo_486-85" data-name="Grupo 486" transform="translate(498.068 801.188)">
      <path id="Unión_10-85" data-name="Unión 10" d="M88.945,69a11,11,0,0,1-11-11V15.234a4,4,0,0,0-4-4H51.56a4,4,0,0,0-4,4V67.4H38.312V12.267a3.985,3.985,0,0,0-2.679-1.032H13.248a4,4,0,0,0-4,4V67.4H0V11A11,11,0,0,1,11,0H36.56a10.919,10.919,0,0,1,6.376,2.033A10.919,10.919,0,0,1,49.312,0h25.56a10.917,10.917,0,0,1,7.036,2.543A10.917,10.917,0,0,1,88.945,0H107.01V13.1h-16a4.005,4.005,0,0,0-4,4V53.188a4.005,4.005,0,0,0,4,4H131.15a4,4,0,0,0,4-4V41.723H113.615V30.49H144V58a11,11,0,0,1-11,11Z" transform="translate(-0.068 -0.188)" fill="#0f0e24"/>
      <ellipse id="Elipse_85-85" data-name="Elipse 85" cx="8" cy="9.5" rx="8" ry="9.5" transform="translate(129.932 -0.188)" fill="#0f0e24"/>
    </g>
    <g id="Grupo_486-86" data-name="Grupo 486" transform="translate(664.068 801.188)">
      <path id="Unión_10-86" data-name="Unión 10" d="M88.945,69a11,11,0,0,1-11-11V15.234a4,4,0,0,0-4-4H51.56a4,4,0,0,0-4,4V67.4H38.312V12.267a3.985,3.985,0,0,0-2.679-1.032H13.248a4,4,0,0,0-4,4V67.4H0V11A11,11,0,0,1,11,0H36.56a10.919,10.919,0,0,1,6.376,2.033A10.919,10.919,0,0,1,49.312,0h25.56a10.917,10.917,0,0,1,7.036,2.543A10.917,10.917,0,0,1,88.945,0H107.01V13.1h-16a4.005,4.005,0,0,0-4,4V53.188a4.005,4.005,0,0,0,4,4H131.15a4,4,0,0,0,4-4V41.723H113.615V30.49H144V58a11,11,0,0,1-11,11Z" transform="translate(-0.068 -0.188)" fill="#0f0e24"/>
      <ellipse id="Elipse_85-86" data-name="Elipse 85" cx="8" cy="9.5" rx="8" ry="9.5" transform="translate(129.932 -0.188)" fill="#0f0e24"/>
    </g>
    <g id="Grupo_486-87" data-name="Grupo 486" transform="translate(830.068 801.188)">
      <path id="Unión_10-87" data-name="Unión 10" d="M88.945,69a11,11,0,0,1-11-11V15.234a4,4,0,0,0-4-4H51.56a4,4,0,0,0-4,4V67.4H38.312V12.267a3.985,3.985,0,0,0-2.679-1.032H13.248a4,4,0,0,0-4,4V67.4H0V11A11,11,0,0,1,11,0H36.56a10.919,10.919,0,0,1,6.376,2.033A10.919,10.919,0,0,1,49.312,0h25.56a10.917,10.917,0,0,1,7.036,2.543A10.917,10.917,0,0,1,88.945,0H107.01V13.1h-16a4.005,4.005,0,0,0-4,4V53.188a4.005,4.005,0,0,0,4,4H131.15a4,4,0,0,0,4-4V41.723H113.615V30.49H144V58a11,11,0,0,1-11,11Z" transform="translate(-0.068 -0.188)" fill="#0f0e24"/>
      <ellipse id="Elipse_85-87" data-name="Elipse 85" cx="8" cy="9.5" rx="8" ry="9.5" transform="translate(129.932 -0.188)" fill="#0f0e24"/>
    </g>
    <g id="Grupo_486-88" data-name="Grupo 486" transform="translate(996.068 801.188)">
      <path id="Unión_10-88" data-name="Unión 10" d="M88.945,69a11,11,0,0,1-11-11V15.234a4,4,0,0,0-4-4H51.56a4,4,0,0,0-4,4V67.4H38.312V12.267a3.985,3.985,0,0,0-2.679-1.032H13.248a4,4,0,0,0-4,4V67.4H0V11A11,11,0,0,1,11,0H36.56a10.919,10.919,0,0,1,6.376,2.033A10.919,10.919,0,0,1,49.312,0h25.56a10.917,10.917,0,0,1,7.036,2.543A10.917,10.917,0,0,1,88.945,0H107.01V13.1h-16a4.005,4.005,0,0,0-4,4V53.188a4.005,4.005,0,0,0,4,4H131.15a4,4,0,0,0,4-4V41.723H113.615V30.49H144V58a11,11,0,0,1-11,11Z" transform="translate(-0.068 -0.188)" fill="#0f0e24"/>
      <ellipse id="Elipse_85-88" data-name="Elipse 85" cx="8" cy="9.5" rx="8" ry="9.5" transform="translate(129.932 -0.188)" fill="#0f0e24"/>
    </g>
    <g id="Grupo_486-89" data-name="Grupo 486" transform="translate(1162.068 801.188)">
      <path id="Unión_10-89" data-name="Unión 10" d="M88.945,69a11,11,0,0,1-11-11V15.234a4,4,0,0,0-4-4H51.56a4,4,0,0,0-4,4V67.4H38.312V12.267a3.985,3.985,0,0,0-2.679-1.032H13.248a4,4,0,0,0-4,4V67.4H0V11A11,11,0,0,1,11,0H36.56a10.919,10.919,0,0,1,6.376,2.033A10.919,10.919,0,0,1,49.312,0h25.56a10.917,10.917,0,0,1,7.036,2.543A10.917,10.917,0,0,1,88.945,0H107.01V13.1h-16a4.005,4.005,0,0,0-4,4V53.188a4.005,4.005,0,0,0,4,4H131.15a4,4,0,0,0,4-4V41.723H113.615V30.49H144V58a11,11,0,0,1-11,11Z" transform="translate(-0.068 -0.188)" fill="#0f0e24"/>
      <ellipse id="Elipse_85-89" data-name="Elipse 85" cx="8" cy="9.5" rx="8" ry="9.5" transform="translate(129.932 -0.188)" fill="#0f0e24"/>
    </g>
    <g id="Grupo_486-90" data-name="Grupo 486" transform="translate(1328.068 801.188)">
      <path id="Unión_10-90" data-name="Unión 10" d="M88.945,69a11,11,0,0,1-11-11V15.234a4,4,0,0,0-4-4H51.56a4,4,0,0,0-4,4V67.4H38.312V12.267a3.985,3.985,0,0,0-2.679-1.032H13.248a4,4,0,0,0-4,4V67.4H0V11A11,11,0,0,1,11,0H36.56a10.919,10.919,0,0,1,6.376,2.033A10.919,10.919,0,0,1,49.312,0h25.56a10.917,10.917,0,0,1,7.036,2.543A10.917,10.917,0,0,1,88.945,0H107.01V13.1h-16a4.005,4.005,0,0,0-4,4V53.188a4.005,4.005,0,0,0,4,4H131.15a4,4,0,0,0,4-4V41.723H113.615V30.49H144V58a11,11,0,0,1-11,11Z" transform="translate(-0.068 -0.188)" fill="#0f0e24"/>
      <ellipse id="Elipse_85-90" data-name="Elipse 85" cx="8" cy="9.5" rx="8" ry="9.5" transform="translate(129.932 -0.188)" fill="#0f0e24"/>
    </g>
    <g id="Grupo_486-91" data-name="Grupo 486" transform="translate(0.068 890.188)">
      <path id="Unión_10-91" data-name="Unión 10" d="M88.945,69a11,11,0,0,1-11-11V15.234a4,4,0,0,0-4-4H51.56a4,4,0,0,0-4,4V67.4H38.312V12.267a3.985,3.985,0,0,0-2.679-1.032H13.248a4,4,0,0,0-4,4V67.4H0V11A11,11,0,0,1,11,0H36.56a10.919,10.919,0,0,1,6.376,2.033A10.919,10.919,0,0,1,49.312,0h25.56a10.917,10.917,0,0,1,7.036,2.543A10.917,10.917,0,0,1,88.945,0H107.01V13.1h-16a4.005,4.005,0,0,0-4,4V53.188a4.005,4.005,0,0,0,4,4H131.15a4,4,0,0,0,4-4V41.723H113.615V30.49H144V58a11,11,0,0,1-11,11Z" transform="translate(-0.068 -0.188)" fill="#0f0e24"/>
      <ellipse id="Elipse_85-91" data-name="Elipse 85" cx="8" cy="9.5" rx="8" ry="9.5" transform="translate(129.932 -0.188)" fill="#0f0e24"/>
    </g>
    <g id="Grupo_486-92" data-name="Grupo 486" transform="translate(166.068 890.188)">
      <path id="Unión_10-92" data-name="Unión 10" d="M88.945,69a11,11,0,0,1-11-11V15.234a4,4,0,0,0-4-4H51.56a4,4,0,0,0-4,4V67.4H38.312V12.267a3.985,3.985,0,0,0-2.679-1.032H13.248a4,4,0,0,0-4,4V67.4H0V11A11,11,0,0,1,11,0H36.56a10.919,10.919,0,0,1,6.376,2.033A10.919,10.919,0,0,1,49.312,0h25.56a10.917,10.917,0,0,1,7.036,2.543A10.917,10.917,0,0,1,88.945,0H107.01V13.1h-16a4.005,4.005,0,0,0-4,4V53.188a4.005,4.005,0,0,0,4,4H131.15a4,4,0,0,0,4-4V41.723H113.615V30.49H144V58a11,11,0,0,1-11,11Z" transform="translate(-0.068 -0.188)" fill="#0f0e24"/>
      <ellipse id="Elipse_85-92" data-name="Elipse 85" cx="8" cy="9.5" rx="8" ry="9.5" transform="translate(129.932 -0.188)" fill="#0f0e24"/>
    </g>
    <g id="Grupo_486-93" data-name="Grupo 486" transform="translate(332.068 890.188)">
      <path id="Unión_10-93" data-name="Unión 10" d="M88.945,69a11,11,0,0,1-11-11V15.234a4,4,0,0,0-4-4H51.56a4,4,0,0,0-4,4V67.4H38.312V12.267a3.985,3.985,0,0,0-2.679-1.032H13.248a4,4,0,0,0-4,4V67.4H0V11A11,11,0,0,1,11,0H36.56a10.919,10.919,0,0,1,6.376,2.033A10.919,10.919,0,0,1,49.312,0h25.56a10.917,10.917,0,0,1,7.036,2.543A10.917,10.917,0,0,1,88.945,0H107.01V13.1h-16a4.005,4.005,0,0,0-4,4V53.188a4.005,4.005,0,0,0,4,4H131.15a4,4,0,0,0,4-4V41.723H113.615V30.49H144V58a11,11,0,0,1-11,11Z" transform="translate(-0.068 -0.188)" fill="#0f0e24"/>
      <ellipse id="Elipse_85-93" data-name="Elipse 85" cx="8" cy="9.5" rx="8" ry="9.5" transform="translate(129.932 -0.188)" fill="#0f0e24"/>
    </g>
    <g id="Grupo_486-94" data-name="Grupo 486" transform="translate(498.068 890.188)">
      <path id="Unión_10-94" data-name="Unión 10" d="M88.945,69a11,11,0,0,1-11-11V15.234a4,4,0,0,0-4-4H51.56a4,4,0,0,0-4,4V67.4H38.312V12.267a3.985,3.985,0,0,0-2.679-1.032H13.248a4,4,0,0,0-4,4V67.4H0V11A11,11,0,0,1,11,0H36.56a10.919,10.919,0,0,1,6.376,2.033A10.919,10.919,0,0,1,49.312,0h25.56a10.917,10.917,0,0,1,7.036,2.543A10.917,10.917,0,0,1,88.945,0H107.01V13.1h-16a4.005,4.005,0,0,0-4,4V53.188a4.005,4.005,0,0,0,4,4H131.15a4,4,0,0,0,4-4V41.723H113.615V30.49H144V58a11,11,0,0,1-11,11Z" transform="translate(-0.068 -0.188)" fill="#0f0e24"/>
      <ellipse id="Elipse_85-94" data-name="Elipse 85" cx="8" cy="9.5" rx="8" ry="9.5" transform="translate(129.932 -0.188)" fill="#0f0e24"/>
    </g>
    <g id="Grupo_486-95" data-name="Grupo 486" transform="translate(664.068 890.188)">
      <path id="Unión_10-95" data-name="Unión 10" d="M88.945,69a11,11,0,0,1-11-11V15.234a4,4,0,0,0-4-4H51.56a4,4,0,0,0-4,4V67.4H38.312V12.267a3.985,3.985,0,0,0-2.679-1.032H13.248a4,4,0,0,0-4,4V67.4H0V11A11,11,0,0,1,11,0H36.56a10.919,10.919,0,0,1,6.376,2.033A10.919,10.919,0,0,1,49.312,0h25.56a10.917,10.917,0,0,1,7.036,2.543A10.917,10.917,0,0,1,88.945,0H107.01V13.1h-16a4.005,4.005,0,0,0-4,4V53.188a4.005,4.005,0,0,0,4,4H131.15a4,4,0,0,0,4-4V41.723H113.615V30.49H144V58a11,11,0,0,1-11,11Z" transform="translate(-0.068 -0.188)" fill="#0f0e24"/>
      <ellipse id="Elipse_85-95" data-name="Elipse 85" cx="8" cy="9.5" rx="8" ry="9.5" transform="translate(129.932 -0.188)" fill="#0f0e24"/>
    </g>
    <g id="Grupo_486-96" data-name="Grupo 486" transform="translate(830.068 890.188)">
      <path id="Unión_10-96" data-name="Unión 10" d="M88.945,69a11,11,0,0,1-11-11V15.234a4,4,0,0,0-4-4H51.56a4,4,0,0,0-4,4V67.4H38.312V12.267a3.985,3.985,0,0,0-2.679-1.032H13.248a4,4,0,0,0-4,4V67.4H0V11A11,11,0,0,1,11,0H36.56a10.919,10.919,0,0,1,6.376,2.033A10.919,10.919,0,0,1,49.312,0h25.56a10.917,10.917,0,0,1,7.036,2.543A10.917,10.917,0,0,1,88.945,0H107.01V13.1h-16a4.005,4.005,0,0,0-4,4V53.188a4.005,4.005,0,0,0,4,4H131.15a4,4,0,0,0,4-4V41.723H113.615V30.49H144V58a11,11,0,0,1-11,11Z" transform="translate(-0.068 -0.188)" fill="#0f0e24"/>
      <ellipse id="Elipse_85-96" data-name="Elipse 85" cx="8" cy="9.5" rx="8" ry="9.5" transform="translate(129.932 -0.188)" fill="#0f0e24"/>
    </g>
    <g id="Grupo_486-97" data-name="Grupo 486" transform="translate(996.068 890.188)">
      <path id="Unión_10-97" data-name="Unión 10" d="M88.945,69a11,11,0,0,1-11-11V15.234a4,4,0,0,0-4-4H51.56a4,4,0,0,0-4,4V67.4H38.312V12.267a3.985,3.985,0,0,0-2.679-1.032H13.248a4,4,0,0,0-4,4V67.4H0V11A11,11,0,0,1,11,0H36.56a10.919,10.919,0,0,1,6.376,2.033A10.919,10.919,0,0,1,49.312,0h25.56a10.917,10.917,0,0,1,7.036,2.543A10.917,10.917,0,0,1,88.945,0H107.01V13.1h-16a4.005,4.005,0,0,0-4,4V53.188a4.005,4.005,0,0,0,4,4H131.15a4,4,0,0,0,4-4V41.723H113.615V30.49H144V58a11,11,0,0,1-11,11Z" transform="translate(-0.068 -0.188)" fill="#0f0e24"/>
      <ellipse id="Elipse_85-97" data-name="Elipse 85" cx="8" cy="9.5" rx="8" ry="9.5" transform="translate(129.932 -0.188)" fill="#0f0e24"/>
    </g>
    <g id="Grupo_486-98" data-name="Grupo 486" transform="translate(1162.068 890.188)">
      <path id="Unión_10-98" data-name="Unión 10" d="M88.945,69a11,11,0,0,1-11-11V15.234a4,4,0,0,0-4-4H51.56a4,4,0,0,0-4,4V67.4H38.312V12.267a3.985,3.985,0,0,0-2.679-1.032H13.248a4,4,0,0,0-4,4V67.4H0V11A11,11,0,0,1,11,0H36.56a10.919,10.919,0,0,1,6.376,2.033A10.919,10.919,0,0,1,49.312,0h25.56a10.917,10.917,0,0,1,7.036,2.543A10.917,10.917,0,0,1,88.945,0H107.01V13.1h-16a4.005,4.005,0,0,0-4,4V53.188a4.005,4.005,0,0,0,4,4H131.15a4,4,0,0,0,4-4V41.723H113.615V30.49H144V58a11,11,0,0,1-11,11Z" transform="translate(-0.068 -0.188)" fill="#0f0e24"/>
      <ellipse id="Elipse_85-98" data-name="Elipse 85" cx="8" cy="9.5" rx="8" ry="9.5" transform="translate(129.932 -0.188)" fill="#0f0e24"/>
    </g>
    <g id="Grupo_486-99" data-name="Grupo 486" transform="translate(1328.068 890.188)">
      <path id="Unión_10-99" data-name="Unión 10" d="M88.945,69a11,11,0,0,1-11-11V15.234a4,4,0,0,0-4-4H51.56a4,4,0,0,0-4,4V67.4H38.312V12.267a3.985,3.985,0,0,0-2.679-1.032H13.248a4,4,0,0,0-4,4V67.4H0V11A11,11,0,0,1,11,0H36.56a10.919,10.919,0,0,1,6.376,2.033A10.919,10.919,0,0,1,49.312,0h25.56a10.917,10.917,0,0,1,7.036,2.543A10.917,10.917,0,0,1,88.945,0H107.01V13.1h-16a4.005,4.005,0,0,0-4,4V53.188a4.005,4.005,0,0,0,4,4H131.15a4,4,0,0,0,4-4V41.723H113.615V30.49H144V58a11,11,0,0,1-11,11Z" transform="translate(-0.068 -0.188)" fill="#0f0e24"/>
      <ellipse id="Elipse_85-99" data-name="Elipse 85" cx="8" cy="9.5" rx="8" ry="9.5" transform="translate(129.932 -0.188)" fill="#0f0e24"/>
    </g>
    <g id="Grupo_486-100" data-name="Grupo 486" transform="translate(0.068 979.188)">
      <path id="Unión_10-100" data-name="Unión 10" d="M88.945,69a11,11,0,0,1-11-11V15.234a4,4,0,0,0-4-4H51.56a4,4,0,0,0-4,4V67.4H38.312V12.267a3.985,3.985,0,0,0-2.679-1.032H13.248a4,4,0,0,0-4,4V67.4H0V11A11,11,0,0,1,11,0H36.56a10.919,10.919,0,0,1,6.376,2.033A10.919,10.919,0,0,1,49.312,0h25.56a10.917,10.917,0,0,1,7.036,2.543A10.917,10.917,0,0,1,88.945,0H107.01V13.1h-16a4.005,4.005,0,0,0-4,4V53.188a4.005,4.005,0,0,0,4,4H131.15a4,4,0,0,0,4-4V41.723H113.615V30.49H144V58a11,11,0,0,1-11,11Z" transform="translate(-0.068 -0.188)" fill="#0f0e24"/>
      <ellipse id="Elipse_85-100" data-name="Elipse 85" cx="8" cy="9.5" rx="8" ry="9.5" transform="translate(129.932 -0.188)" fill="#0f0e24"/>
    </g>
    <g id="Grupo_486-101" data-name="Grupo 486" transform="translate(166.068 979.188)">
      <path id="Unión_10-101" data-name="Unión 10" d="M88.945,69a11,11,0,0,1-11-11V15.234a4,4,0,0,0-4-4H51.56a4,4,0,0,0-4,4V67.4H38.312V12.267a3.985,3.985,0,0,0-2.679-1.032H13.248a4,4,0,0,0-4,4V67.4H0V11A11,11,0,0,1,11,0H36.56a10.919,10.919,0,0,1,6.376,2.033A10.919,10.919,0,0,1,49.312,0h25.56a10.917,10.917,0,0,1,7.036,2.543A10.917,10.917,0,0,1,88.945,0H107.01V13.1h-16a4.005,4.005,0,0,0-4,4V53.188a4.005,4.005,0,0,0,4,4H131.15a4,4,0,0,0,4-4V41.723H113.615V30.49H144V58a11,11,0,0,1-11,11Z" transform="translate(-0.068 -0.188)" fill="#0f0e24"/>
      <ellipse id="Elipse_85-101" data-name="Elipse 85" cx="8" cy="9.5" rx="8" ry="9.5" transform="translate(129.932 -0.188)" fill="#0f0e24"/>
    </g>
    <g id="Grupo_486-102" data-name="Grupo 486" transform="translate(332.068 979.188)">
      <path id="Unión_10-102" data-name="Unión 10" d="M88.945,69a11,11,0,0,1-11-11V15.234a4,4,0,0,0-4-4H51.56a4,4,0,0,0-4,4V67.4H38.312V12.267a3.985,3.985,0,0,0-2.679-1.032H13.248a4,4,0,0,0-4,4V67.4H0V11A11,11,0,0,1,11,0H36.56a10.919,10.919,0,0,1,6.376,2.033A10.919,10.919,0,0,1,49.312,0h25.56a10.917,10.917,0,0,1,7.036,2.543A10.917,10.917,0,0,1,88.945,0H107.01V13.1h-16a4.005,4.005,0,0,0-4,4V53.188a4.005,4.005,0,0,0,4,4H131.15a4,4,0,0,0,4-4V41.723H113.615V30.49H144V58a11,11,0,0,1-11,11Z" transform="translate(-0.068 -0.188)" fill="#0f0e24"/>
      <ellipse id="Elipse_85-102" data-name="Elipse 85" cx="8" cy="9.5" rx="8" ry="9.5" transform="translate(129.932 -0.188)" fill="#0f0e24"/>
    </g>
    <g id="Grupo_486-103" data-name="Grupo 486" transform="translate(498.068 979.188)">
      <path id="Unión_10-103" data-name="Unión 10" d="M88.945,69a11,11,0,0,1-11-11V15.234a4,4,0,0,0-4-4H51.56a4,4,0,0,0-4,4V67.4H38.312V12.267a3.985,3.985,0,0,0-2.679-1.032H13.248a4,4,0,0,0-4,4V67.4H0V11A11,11,0,0,1,11,0H36.56a10.919,10.919,0,0,1,6.376,2.033A10.919,10.919,0,0,1,49.312,0h25.56a10.917,10.917,0,0,1,7.036,2.543A10.917,10.917,0,0,1,88.945,0H107.01V13.1h-16a4.005,4.005,0,0,0-4,4V53.188a4.005,4.005,0,0,0,4,4H131.15a4,4,0,0,0,4-4V41.723H113.615V30.49H144V58a11,11,0,0,1-11,11Z" transform="translate(-0.068 -0.188)" fill="#0f0e24"/>
      <ellipse id="Elipse_85-103" data-name="Elipse 85" cx="8" cy="9.5" rx="8" ry="9.5" transform="translate(129.932 -0.188)" fill="#0f0e24"/>
    </g>
    <g id="Grupo_486-104" data-name="Grupo 486" transform="translate(664.068 979.188)">
      <path id="Unión_10-104" data-name="Unión 10" d="M88.945,69a11,11,0,0,1-11-11V15.234a4,4,0,0,0-4-4H51.56a4,4,0,0,0-4,4V67.4H38.312V12.267a3.985,3.985,0,0,0-2.679-1.032H13.248a4,4,0,0,0-4,4V67.4H0V11A11,11,0,0,1,11,0H36.56a10.919,10.919,0,0,1,6.376,2.033A10.919,10.919,0,0,1,49.312,0h25.56a10.917,10.917,0,0,1,7.036,2.543A10.917,10.917,0,0,1,88.945,0H107.01V13.1h-16a4.005,4.005,0,0,0-4,4V53.188a4.005,4.005,0,0,0,4,4H131.15a4,4,0,0,0,4-4V41.723H113.615V30.49H144V58a11,11,0,0,1-11,11Z" transform="translate(-0.068 -0.188)" fill="#0f0e24"/>
      <ellipse id="Elipse_85-104" data-name="Elipse 85" cx="8" cy="9.5" rx="8" ry="9.5" transform="translate(129.932 -0.188)" fill="#0f0e24"/>
    </g>
    <g id="Grupo_486-105" data-name="Grupo 486" transform="translate(830.068 979.188)">
      <path id="Unión_10-105" data-name="Unión 10" d="M88.945,69a11,11,0,0,1-11-11V15.234a4,4,0,0,0-4-4H51.56a4,4,0,0,0-4,4V67.4H38.312V12.267a3.985,3.985,0,0,0-2.679-1.032H13.248a4,4,0,0,0-4,4V67.4H0V11A11,11,0,0,1,11,0H36.56a10.919,10.919,0,0,1,6.376,2.033A10.919,10.919,0,0,1,49.312,0h25.56a10.917,10.917,0,0,1,7.036,2.543A10.917,10.917,0,0,1,88.945,0H107.01V13.1h-16a4.005,4.005,0,0,0-4,4V53.188a4.005,4.005,0,0,0,4,4H131.15a4,4,0,0,0,4-4V41.723H113.615V30.49H144V58a11,11,0,0,1-11,11Z" transform="translate(-0.068 -0.188)" fill="#0f0e24"/>
      <ellipse id="Elipse_85-105" data-name="Elipse 85" cx="8" cy="9.5" rx="8" ry="9.5" transform="translate(129.932 -0.188)" fill="#0f0e24"/>
    </g>
    <g id="Grupo_486-106" data-name="Grupo 486" transform="translate(996.068 979.188)">
      <path id="Unión_10-106" data-name="Unión 10" d="M88.945,69a11,11,0,0,1-11-11V15.234a4,4,0,0,0-4-4H51.56a4,4,0,0,0-4,4V67.4H38.312V12.267a3.985,3.985,0,0,0-2.679-1.032H13.248a4,4,0,0,0-4,4V67.4H0V11A11,11,0,0,1,11,0H36.56a10.919,10.919,0,0,1,6.376,2.033A10.919,10.919,0,0,1,49.312,0h25.56a10.917,10.917,0,0,1,7.036,2.543A10.917,10.917,0,0,1,88.945,0H107.01V13.1h-16a4.005,4.005,0,0,0-4,4V53.188a4.005,4.005,0,0,0,4,4H131.15a4,4,0,0,0,4-4V41.723H113.615V30.49H144V58a11,11,0,0,1-11,11Z" transform="translate(-0.068 -0.188)" fill="#0f0e24"/>
      <ellipse id="Elipse_85-106" data-name="Elipse 85" cx="8" cy="9.5" rx="8" ry="9.5" transform="translate(129.932 -0.188)" fill="#0f0e24"/>
    </g>
    <g id="Grupo_486-107" data-name="Grupo 486" transform="translate(1162.068 979.188)">
      <path id="Unión_10-107" data-name="Unión 10" d="M88.945,69a11,11,0,0,1-11-11V15.234a4,4,0,0,0-4-4H51.56a4,4,0,0,0-4,4V67.4H38.312V12.267a3.985,3.985,0,0,0-2.679-1.032H13.248a4,4,0,0,0-4,4V67.4H0V11A11,11,0,0,1,11,0H36.56a10.919,10.919,0,0,1,6.376,2.033A10.919,10.919,0,0,1,49.312,0h25.56a10.917,10.917,0,0,1,7.036,2.543A10.917,10.917,0,0,1,88.945,0H107.01V13.1h-16a4.005,4.005,0,0,0-4,4V53.188a4.005,4.005,0,0,0,4,4H131.15a4,4,0,0,0,4-4V41.723H113.615V30.49H144V58a11,11,0,0,1-11,11Z" transform="translate(-0.068 -0.188)" fill="#0f0e24"/>
      <ellipse id="Elipse_85-107" data-name="Elipse 85" cx="8" cy="9.5" rx="8" ry="9.5" transform="translate(129.932 -0.188)" fill="#0f0e24"/>
    </g>
    <g id="Grupo_486-108" data-name="Grupo 486" transform="translate(1328.068 979.188)">
      <path id="Unión_10-108" data-name="Unión 10" d="M88.945,69a11,11,0,0,1-11-11V15.234a4,4,0,0,0-4-4H51.56a4,4,0,0,0-4,4V67.4H38.312V12.267a3.985,3.985,0,0,0-2.679-1.032H13.248a4,4,0,0,0-4,4V67.4H0V11A11,11,0,0,1,11,0H36.56a10.919,10.919,0,0,1,6.376,2.033A10.919,10.919,0,0,1,49.312,0h25.56a10.917,10.917,0,0,1,7.036,2.543A10.917,10.917,0,0,1,88.945,0H107.01V13.1h-16a4.005,4.005,0,0,0-4,4V53.188a4.005,4.005,0,0,0,4,4H131.15a4,4,0,0,0,4-4V41.723H113.615V30.49H144V58a11,11,0,0,1-11,11Z" transform="translate(-0.068 -0.188)" fill="#0f0e24"/>
      <ellipse id="Elipse_85-108" data-name="Elipse 85" cx="8" cy="9.5" rx="8" ry="9.5" transform="translate(129.932 -0.188)" fill="#0f0e24"/>
    </g>
  </g>
</svg>
